<svg xmlns="http://www.w3.org/2000/svg" xmlns:xlink="http://www.w3.org/1999/xlink" width="450" zoomAndPan="magnify" viewBox="0 0 337.5 337.500003" height="450" preserveAspectRatio="xMidYMid meet" version="1.0"><path fill="#000000" d="M 4.007812 159.84375 L 159.84375 4.007812 C 160.410156 3.441406 161.03125 2.933594 161.699219 2.488281 C 162.367188 2.039062 163.074219 1.664062 163.816406 1.355469 C 164.558594 1.046875 165.324219 0.816406 166.113281 0.660156 C 166.902344 0.5 167.695312 0.421875 168.5 0.421875 C 169.304688 0.421875 170.101562 0.5 170.890625 0.660156 C 171.675781 0.816406 172.441406 1.046875 173.1875 1.355469 C 173.929688 1.664062 174.632812 2.039062 175.300781 2.488281 C 175.972656 2.933594 176.589844 3.441406 177.15625 4.007812 L 332.992188 159.84375 C 333.558594 160.410156 334.066406 161.03125 334.515625 161.699219 C 334.960938 162.367188 335.335938 163.070312 335.644531 163.816406 C 335.953125 164.558594 336.183594 165.324219 336.34375 166.113281 C 336.5 166.898438 336.578125 167.695312 336.578125 168.5 C 336.578125 169.304688 336.5 170.101562 336.34375 170.890625 C 336.183594 171.675781 335.953125 172.441406 335.644531 173.1875 C 335.339844 173.929688 334.960938 174.632812 334.515625 175.300781 C 334.066406 175.972656 333.558594 176.589844 332.992188 177.15625 L 177.15625 332.992188 C 176.589844 333.558594 175.972656 334.066406 175.300781 334.515625 C 174.632812 334.960938 173.929688 335.335938 173.1875 335.644531 C 172.441406 335.953125 171.675781 336.183594 170.890625 336.34375 C 170.101562 336.5 169.304688 336.578125 168.5 336.578125 C 167.695312 336.578125 166.902344 336.5 166.113281 336.34375 C 165.324219 336.183594 164.558594 335.953125 163.816406 335.644531 C 163.074219 335.335938 162.367188 334.960938 161.699219 334.515625 C 161.03125 334.066406 160.410156 333.558594 159.84375 332.992188 L 4.007812 177.15625 C 3.441406 176.589844 2.933594 175.972656 2.488281 175.300781 C 2.039062 174.632812 1.664062 173.929688 1.355469 173.1875 C 1.046875 172.441406 0.816406 171.675781 0.660156 170.890625 C 0.5 170.101562 0.421875 169.304688 0.421875 168.5 C 0.421875 167.695312 0.5 166.898438 0.660156 166.113281 C 0.816406 165.324219 1.046875 164.558594 1.355469 163.816406 C 1.664062 163.074219 2.039062 162.367188 2.488281 161.699219 C 2.933594 161.03125 3.441406 160.410156 4.007812 159.84375 Z M 4.007812 159.84375 " fill-opacity="1" fill-rule="evenodd"/><path fill="#fff000" d="M 8.339844 164.171875 L 164.171875 8.339844 C 164.457031 8.054688 164.765625 7.800781 165.097656 7.578125 C 165.433594 7.351562 165.785156 7.164062 166.15625 7.011719 C 166.527344 6.855469 166.910156 6.742188 167.304688 6.664062 C 167.699219 6.585938 168.097656 6.546875 168.5 6.546875 C 168.902344 6.546875 169.300781 6.585938 169.695312 6.664062 C 170.089844 6.742188 170.472656 6.855469 170.84375 7.011719 C 171.214844 7.164062 171.566406 7.351562 171.902344 7.578125 C 172.234375 7.800781 172.546875 8.054688 172.828125 8.339844 L 328.664062 164.171875 C 328.945312 164.457031 329.199219 164.765625 329.425781 165.097656 C 329.648438 165.433594 329.835938 165.785156 329.988281 166.15625 C 330.144531 166.527344 330.257812 166.910156 330.339844 167.304688 C 330.417969 167.699219 330.457031 168.097656 330.457031 168.5 C 330.457031 168.902344 330.417969 169.300781 330.339844 169.695312 C 330.257812 170.089844 330.144531 170.472656 329.988281 170.84375 C 329.835938 171.214844 329.648438 171.566406 329.425781 171.902344 C 329.199219 172.234375 328.945312 172.542969 328.664062 172.828125 L 172.828125 328.664062 C 172.546875 328.945312 172.234375 329.199219 171.902344 329.425781 C 171.566406 329.648438 171.214844 329.835938 170.84375 329.988281 C 170.472656 330.144531 170.089844 330.257812 169.695312 330.339844 C 169.300781 330.417969 168.902344 330.457031 168.5 330.457031 C 168.097656 330.457031 167.699219 330.417969 167.304688 330.339844 C 166.910156 330.257812 166.527344 330.144531 166.15625 329.988281 C 165.785156 329.835938 165.433594 329.648438 165.097656 329.425781 C 164.765625 329.199219 164.457031 328.945312 164.171875 328.664062 L 8.339844 172.828125 C 8.054688 172.542969 7.800781 172.234375 7.578125 171.902344 C 7.355469 171.566406 7.164062 171.214844 7.011719 170.84375 C 6.855469 170.472656 6.742188 170.089844 6.664062 169.695312 C 6.585938 169.300781 6.546875 168.902344 6.546875 168.5 C 6.546875 168.097656 6.585938 167.699219 6.664062 167.304688 C 6.742188 166.910156 6.855469 166.527344 7.011719 166.15625 C 7.164062 165.785156 7.355469 165.433594 7.578125 165.097656 C 7.800781 164.765625 8.054688 164.457031 8.339844 164.171875 Z M 8.339844 164.171875 " fill-opacity="1" fill-rule="evenodd"/><path fill="#000000" d="M 92.675781 203.859375 C 91.839844 202.066406 91.066406 200.246094 90.359375 198.398438 C 89.652344 196.550781 89.011719 194.679688 88.4375 192.785156 C 87.863281 190.894531 87.359375 188.984375 86.921875 187.054688 C 86.480469 185.125 86.113281 183.183594 85.8125 181.226562 C 85.507812 179.273438 85.277344 177.308594 85.117188 175.335938 C 84.953125 173.367188 84.863281 171.390625 84.84375 169.414062 C 84.820312 167.433594 84.867188 165.457031 84.988281 163.484375 C 85.105469 161.507812 85.292969 159.542969 85.550781 157.578125 C 85.8125 155.617188 86.136719 153.667969 86.535156 151.730469 C 86.929688 149.792969 87.394531 147.871094 87.929688 145.964844 C 88.460938 144.0625 89.0625 142.175781 89.726562 140.316406 C 90.394531 138.453125 91.125 136.617188 91.921875 134.804688 C 92.71875 132.996094 93.578125 131.214844 94.5 129.464844 C 95.425781 127.714844 96.410156 126 97.453125 124.320312 C 98.496094 122.640625 99.601562 121 100.761719 119.398438 C 101.921875 117.796875 103.140625 116.238281 104.410156 114.722656 L 168.5 168.5 Z M 92.675781 203.859375 " fill-opacity="1" fill-rule="evenodd"/><path fill="#000000" d="M 237.035156 216.488281 C 235.898438 218.109375 234.707031 219.6875 233.460938 221.222656 C 232.214844 222.757812 230.914062 224.25 229.5625 225.691406 C 228.210938 227.136719 226.808594 228.53125 225.359375 229.875 C 223.90625 231.21875 222.410156 232.511719 220.867188 233.75 C 219.324219 234.988281 217.738281 236.167969 216.113281 237.292969 C 214.488281 238.421875 212.820312 239.488281 211.121094 240.496094 C 209.417969 241.503906 207.683594 242.449219 205.914062 243.332031 C 204.144531 244.21875 202.34375 245.039062 200.515625 245.796875 C 198.6875 246.550781 196.835938 247.242188 194.960938 247.871094 C 193.082031 248.496094 191.1875 249.054688 189.269531 249.542969 C 187.355469 250.035156 185.421875 250.457031 183.476562 250.8125 C 181.53125 251.167969 179.574219 251.453125 177.609375 251.667969 C 175.640625 251.882812 173.671875 252.027344 171.695312 252.101562 C 169.71875 252.179688 167.738281 252.183594 165.761719 252.117188 C 163.785156 252.054688 161.8125 251.917969 159.847656 251.714844 C 157.878906 251.511719 155.921875 251.234375 153.972656 250.894531 L 168.5 168.5 Z M 237.035156 216.488281 " fill-opacity="1" fill-rule="evenodd"/><path fill="#000000" d="M 175.792969 85.15625 C 177.761719 85.328125 179.726562 85.570312 181.679688 85.882812 C 183.632812 86.191406 185.570312 86.574219 187.5 87.023438 C 189.425781 87.472656 191.332031 87.988281 193.222656 88.574219 C 195.113281 89.15625 196.980469 89.808594 198.824219 90.523438 C 200.667969 91.242188 202.484375 92.023438 204.269531 92.871094 C 206.058594 93.714844 207.816406 94.625 209.539062 95.59375 C 211.261719 96.5625 212.949219 97.59375 214.601562 98.683594 C 216.253906 99.773438 217.863281 100.921875 219.429688 102.125 C 221 103.328125 222.527344 104.589844 224.003906 105.902344 C 225.484375 107.214844 226.917969 108.574219 228.300781 109.988281 C 229.683594 111.402344 231.015625 112.867188 232.296875 114.375 C 233.574219 115.882812 234.800781 117.433594 235.96875 119.027344 C 237.140625 120.625 238.25 122.257812 239.304688 123.933594 C 240.359375 125.609375 241.351562 127.316406 242.285156 129.0625 C 243.21875 130.804688 244.085938 132.582031 244.894531 134.386719 C 245.699219 136.195312 246.441406 138.027344 247.117188 139.886719 L 168.5 168.5 Z M 175.792969 85.15625 " fill-opacity="1" fill-rule="evenodd"/><path fill="#fff000" d="M 227.675781 168.5 C 227.675781 170.4375 227.582031 172.371094 227.390625 174.300781 C 227.203125 176.230469 226.917969 178.144531 226.539062 180.046875 C 226.160156 181.945312 225.691406 183.824219 225.128906 185.679688 C 224.566406 187.53125 223.914062 189.355469 223.171875 191.144531 C 222.429688 192.9375 221.601562 194.6875 220.691406 196.394531 C 219.777344 198.105469 218.78125 199.765625 217.703125 201.378906 C 216.628906 202.988281 215.472656 204.542969 214.246094 206.042969 C 213.015625 207.539062 211.714844 208.972656 210.34375 210.34375 C 208.972656 211.714844 207.539062 213.015625 206.042969 214.246094 C 204.542969 215.472656 202.988281 216.628906 201.378906 217.703125 C 199.765625 218.78125 198.105469 219.777344 196.394531 220.691406 C 194.6875 221.601562 192.9375 222.429688 191.144531 223.171875 C 189.355469 223.914062 187.53125 224.566406 185.679688 225.128906 C 183.824219 225.691406 181.945312 226.160156 180.046875 226.539062 C 178.144531 226.917969 176.230469 227.203125 174.300781 227.390625 C 172.371094 227.582031 170.4375 227.675781 168.5 227.675781 C 166.5625 227.675781 164.628906 227.582031 162.699219 227.390625 C 160.769531 227.203125 158.855469 226.917969 156.957031 226.539062 C 155.054688 226.160156 153.175781 225.691406 151.324219 225.128906 C 149.46875 224.566406 147.644531 223.914062 145.855469 223.171875 C 144.0625 222.429688 142.3125 221.601562 140.605469 220.691406 C 138.894531 219.777344 137.234375 218.78125 135.625 217.703125 C 134.011719 216.628906 132.457031 215.472656 130.960938 214.246094 C 129.460938 213.015625 128.027344 211.714844 126.65625 210.34375 C 125.285156 208.972656 123.984375 207.539062 122.757812 206.042969 C 121.527344 204.542969 120.375 202.988281 119.296875 201.378906 C 118.21875 199.765625 117.226562 198.105469 116.3125 196.394531 C 115.398438 194.6875 114.570312 192.9375 113.828125 191.144531 C 113.085938 189.355469 112.433594 187.53125 111.871094 185.679688 C 111.308594 183.824219 110.839844 181.945312 110.460938 180.046875 C 110.082031 178.144531 109.796875 176.230469 109.609375 174.300781 C 109.417969 172.371094 109.324219 170.4375 109.324219 168.5 C 109.324219 166.5625 109.417969 164.628906 109.609375 162.699219 C 109.796875 160.769531 110.082031 158.855469 110.460938 156.957031 C 110.839844 155.054688 111.308594 153.175781 111.871094 151.324219 C 112.433594 149.46875 113.085938 147.644531 113.828125 145.855469 C 114.570312 144.0625 115.398438 142.3125 116.3125 140.605469 C 117.226562 138.894531 118.21875 137.234375 119.296875 135.625 C 120.375 134.011719 121.527344 132.457031 122.757812 130.960938 C 123.984375 129.460938 125.285156 128.027344 126.65625 126.65625 C 128.027344 125.285156 129.460938 123.984375 130.960938 122.757812 C 132.457031 121.527344 134.011719 120.375 135.625 119.296875 C 137.234375 118.21875 138.894531 117.226562 140.605469 116.3125 C 142.3125 115.398438 144.0625 114.570312 145.855469 113.828125 C 147.644531 113.085938 149.46875 112.433594 151.324219 111.871094 C 153.175781 111.308594 155.054688 110.839844 156.957031 110.460938 C 158.855469 110.082031 160.769531 109.796875 162.699219 109.609375 C 164.628906 109.417969 166.5625 109.324219 168.5 109.324219 C 170.4375 109.324219 172.371094 109.417969 174.300781 109.609375 C 176.230469 109.796875 178.144531 110.082031 180.046875 110.460938 C 181.945312 110.839844 183.824219 111.308594 185.679688 111.871094 C 187.53125 112.433594 189.355469 113.085938 191.144531 113.828125 C 192.9375 114.570312 194.6875 115.398438 196.394531 116.3125 C 198.105469 117.226562 199.765625 118.21875 201.378906 119.296875 C 202.988281 120.375 204.542969 121.527344 206.042969 122.757812 C 207.539062 123.984375 208.972656 125.285156 210.34375 126.65625 C 211.714844 128.027344 213.015625 129.460938 214.246094 130.960938 C 215.472656 132.457031 216.628906 134.011719 217.703125 135.625 C 218.78125 137.234375 219.777344 138.894531 220.691406 140.605469 C 221.601562 142.3125 222.429688 144.0625 223.171875 145.855469 C 223.914062 147.644531 224.566406 149.46875 225.128906 151.324219 C 225.691406 153.175781 226.160156 155.054688 226.539062 156.957031 C 226.917969 158.855469 227.203125 160.769531 227.390625 162.699219 C 227.582031 164.628906 227.675781 166.5625 227.675781 168.5 Z M 227.675781 168.5 " fill-opacity="1" fill-rule="nonzero"/><path fill="#000000" d="M 206.015625 137.019531 L 232.136719 136.078125 L 252.136719 125.886719 L 239.921875 168.5 Z M 206.015625 137.019531 " fill-opacity="1" fill-rule="evenodd"/><path fill="#000000" d="M 177.003906 216.730469 L 164.761719 239.824219 L 163.585938 262.238281 L 132.789062 230.351562 Z M 177.003906 216.730469 " fill-opacity="1" fill-rule="evenodd"/><path fill="#000000" d="M 122.480469 151.75 L 108.601562 129.601562 L 89.777344 117.378906 L 132.789062 106.648438 Z M 122.480469 151.75 " fill-opacity="1" fill-rule="evenodd"/></svg>