<svg xmlns="http://www.w3.org/2000/svg" xmlns:xlink="http://www.w3.org/1999/xlink" width="1080" zoomAndPan="magnify" viewBox="0 0 810 809.999993" height="1080" preserveAspectRatio="xMidYMid meet" version="1.0"><defs><clipPath id="ce2703bb84"><path d="M 71.984375 80 L 738.007812 80 L 738.007812 154.316406 L 71.984375 154.316406 Z M 71.984375 80 " clip-rule="nonzero"/></clipPath><clipPath id="fb3ff75ea1"><path d="M 109 187.148438 L 700.742188 187.148438 L 700.742188 809.984375 L 109 809.984375 Z M 109 187.148438 " clip-rule="nonzero"/></clipPath><clipPath id="c6b2a3e593"><path d="M 71.984375 80 L 738.007812 80 L 738.007812 154.316406 L 71.984375 154.316406 Z M 71.984375 80 " clip-rule="nonzero"/></clipPath><clipPath id="2def52353a"><path d="M 109 187.148438 L 700.742188 187.148438 L 700.742188 809.984375 L 109 809.984375 Z M 109 187.148438 " clip-rule="nonzero"/></clipPath></defs><g clip-path="url(#ce2703bb84)"><path fill="#212529" d="M 701.007812 154.09375 L 108.984375 154.09375 C 88.546875 154.09375 71.984375 137.527344 71.984375 117.089844 C 71.984375 96.660156 88.546875 80.089844 108.984375 80.089844 L 701.007812 80.089844 C 721.445312 80.089844 738.015625 96.660156 738.015625 117.089844 C 738.015625 137.527344 721.445312 154.09375 701.007812 154.09375 " fill-opacity="1" fill-rule="nonzero"/></g><path fill="#212529" d="M 505.359375 108.980469 C 494.164062 108.980469 485.082031 99.90625 485.082031 88.707031 L 485.082031 40.554688 L 323.898438 40.554688 L 323.898438 88.707031 C 323.898438 99.90625 314.824219 108.980469 303.621094 108.980469 C 292.421875 108.980469 283.347656 99.90625 283.347656 88.707031 L 283.347656 25.394531 C 283.347656 10.632812 296.527344 0.0078125 314 0.0078125 L 495.808594 0.0078125 C 512.808594 0.0078125 525.636719 10.632812 525.636719 25.394531 L 525.636719 88.707031 C 525.636719 99.90625 516.554688 108.980469 505.359375 108.980469 " fill-opacity="1" fill-rule="nonzero"/><g clip-path="url(#fb3ff75ea1)"><path fill="#212529" d="M 589.960938 256.042969 L 551.441406 742.636719 C 550.875 749.800781 544.878906 755.246094 537.8125 755.246094 C 537.449219 755.246094 537.082031 755.226562 536.71875 755.199219 C 529.183594 754.605469 523.558594 748.011719 524.15625 740.476562 L 562.675781 253.882812 C 563.273438 246.347656 569.871094 240.722656 577.398438 241.320312 C 584.933594 241.914062 590.558594 248.507812 589.960938 256.042969 Z M 418.175781 742.203125 C 418.171875 749.753906 412.039062 756.257812 404.492188 756.257812 C 404.484375 756.257812 404.480469 756.257812 404.472656 756.257812 C 396.917969 755.246094 390.792969 749.609375 390.808594 742.046875 L 391.3125 255.710938 C 391.320312 248.15625 397.445312 242.289062 405 242.289062 C 405.003906 242.289062 405.003906 242.289062 405.011719 242.289062 C 412.574219 242.289062 418.691406 248.050781 418.683594 255.605469 Z M 273.273438 755.199219 C 272.910156 755.226562 272.542969 755.246094 272.183594 755.246094 C 265.109375 755.246094 259.121094 749.800781 258.558594 742.636719 L 220.027344 256.042969 C 219.433594 248.507812 225.0625 241.914062 232.597656 241.320312 C 240.125 240.730469 246.71875 246.347656 247.316406 253.882812 L 285.84375 740.476562 C 286.441406 748.011719 280.808594 754.605469 273.273438 755.199219 Z M 109.484375 187.546875 L 172.15625 769.710938 C 174.769531 791.863281 195.152344 809.984375 217.457031 809.984375 L 592.539062 809.984375 C 614.84375 809.984375 635.222656 791.863281 637.839844 769.710938 L 700.511719 187.546875 L 109.484375 187.546875 " fill-opacity="1" fill-rule="nonzero"/></g><g clip-path="url(#c6b2a3e593)"><path fill="#212529" d="M 701.007812 154.09375 L 108.984375 154.09375 C 88.546875 154.09375 71.984375 137.527344 71.984375 117.089844 C 71.984375 96.660156 88.546875 80.089844 108.984375 80.089844 L 701.007812 80.089844 C 721.445312 80.089844 738.015625 96.660156 738.015625 117.089844 C 738.015625 137.527344 721.445312 154.09375 701.007812 154.09375 " fill-opacity="1" fill-rule="nonzero"/></g><path fill="#212529" d="M 505.359375 108.980469 C 494.164062 108.980469 485.082031 99.90625 485.082031 88.707031 L 485.082031 40.554688 L 323.898438 40.554688 L 323.898438 88.707031 C 323.898438 99.90625 314.824219 108.980469 303.621094 108.980469 C 292.421875 108.980469 283.347656 99.90625 283.347656 88.707031 L 283.347656 25.394531 C 283.347656 10.632812 296.527344 0.0078125 314 0.0078125 L 495.808594 0.0078125 C 512.808594 0.0078125 525.636719 10.632812 525.636719 25.394531 L 525.636719 88.707031 C 525.636719 99.90625 516.554688 108.980469 505.359375 108.980469 " fill-opacity="1" fill-rule="nonzero"/><g clip-path="url(#2def52353a)"><path fill="#212529" d="M 589.960938 256.042969 L 551.441406 742.636719 C 550.875 749.800781 544.878906 755.246094 537.8125 755.246094 C 537.449219 755.246094 537.082031 755.226562 536.71875 755.199219 C 529.183594 754.605469 523.558594 748.011719 524.15625 740.476562 L 562.675781 253.882812 C 563.273438 246.347656 569.871094 240.722656 577.398438 241.320312 C 584.933594 241.914062 590.558594 248.507812 589.960938 256.042969 Z M 418.175781 742.203125 C 418.171875 749.753906 412.039062 756.257812 404.492188 756.257812 C 404.484375 756.257812 404.480469 756.257812 404.472656 756.257812 C 396.917969 755.246094 390.792969 749.609375 390.808594 742.046875 L 391.3125 255.710938 C 391.320312 248.15625 397.445312 242.289062 405 242.289062 C 405.003906 242.289062 405.003906 242.289062 405.011719 242.289062 C 412.574219 242.289062 418.691406 248.050781 418.683594 255.605469 Z M 273.273438 755.199219 C 272.910156 755.226562 272.542969 755.246094 272.183594 755.246094 C 265.109375 755.246094 259.121094 749.800781 258.558594 742.636719 L 220.027344 256.042969 C 219.433594 248.507812 225.0625 241.914062 232.597656 241.320312 C 240.125 240.730469 246.71875 246.347656 247.316406 253.882812 L 285.84375 740.476562 C 286.441406 748.011719 280.808594 754.605469 273.273438 755.199219 Z M 109.484375 187.546875 L 172.15625 769.710938 C 174.769531 791.863281 195.152344 809.984375 217.457031 809.984375 L 592.539062 809.984375 C 614.84375 809.984375 635.222656 791.863281 637.839844 769.710938 L 700.511719 187.546875 L 109.484375 187.546875 " fill-opacity="1" fill-rule="nonzero"/></g></svg>