<svg xmlns="http://www.w3.org/2000/svg" xmlns:xlink="http://www.w3.org/1999/xlink" width="450" zoomAndPan="magnify" viewBox="0 0 337.5 337.500003" height="450" preserveAspectRatio="xMidYMid meet" version="1.0"><path fill="#fbc730" d="M 164.160156 334.925781 C 165.53125 335.464844 166.984375 335.753906 168.480469 335.753906 C 169.976562 335.753906 171.429688 335.464844 172.796875 334.925781 C 174.210938 334.34375 175.496094 333.511719 176.578125 332.433594 L 332.472656 176.535156 C 333.554688 175.457031 334.382812 174.167969 334.964844 172.757812 C 335.503906 171.386719 335.796875 169.933594 335.796875 168.4375 C 335.796875 166.941406 335.503906 165.488281 334.964844 164.121094 C 334.382812 162.707031 333.554688 161.417969 332.472656 160.339844 L 176.578125 4.527344 C 175.496094 3.445312 174.210938 2.617188 172.796875 2.035156 C 171.429688 1.496094 169.976562 1.203125 168.480469 1.203125 C 166.984375 1.203125 165.53125 1.496094 164.160156 2.035156 C 162.75 2.617188 161.460938 3.445312 160.382812 4.527344 L 4.527344 160.382812 C 3.445312 161.460938 2.617188 162.75 2.035156 164.160156 C 1.496094 165.53125 1.203125 166.984375 1.203125 168.480469 C 1.203125 169.976562 1.496094 171.429688 2.035156 172.796875 C 2.617188 174.210938 3.445312 175.496094 4.527344 176.578125 L 160.421875 332.472656 C 161.503906 333.511719 162.75 334.34375 164.160156 334.925781 Z M 6.601562 168.480469 C 6.601562 167.273438 7.019531 166.152344 7.722656 165.242188 C 7.722656 165.242188 7.722656 165.242188 7.722656 165.199219 C 7.722656 165.199219 7.765625 165.15625 7.765625 165.15625 C 7.847656 165.03125 7.933594 164.949219 8.054688 164.824219 L 164.867188 8.097656 C 165.820312 7.144531 167.109375 6.601562 168.480469 6.601562 C 169.351562 6.601562 170.183594 6.8125 170.886719 7.183594 C 171.34375 7.433594 171.71875 7.722656 172.09375 8.054688 L 328.859375 164.824219 C 329.816406 165.78125 330.355469 167.066406 330.355469 168.4375 C 330.355469 169.351562 330.105469 170.265625 329.648438 171.011719 C 329.441406 171.386719 329.152344 171.71875 328.859375 172.050781 L 278.984375 221.96875 L 172.09375 328.859375 C 171.136719 329.816406 169.851562 330.355469 168.480469 330.355469 C 167.109375 330.355469 165.820312 329.816406 164.867188 328.859375 L 8.097656 172.09375 C 7.765625 171.761719 7.476562 171.386719 7.265625 170.972656 C 6.8125 170.222656 6.601562 169.394531 6.601562 168.480469 Z M 6.601562 168.480469 " fill-opacity="1" fill-rule="nonzero"/><path fill="#fbc730" d="M 332.472656 160.339844 L 176.617188 4.484375 C 172.132812 0 164.824219 0 160.382812 4.484375 L 4.484375 160.339844 L 160.339844 4.484375 C 162.582031 2.242188 165.53125 1.121094 168.480469 1.121094 C 171.429688 1.121094 174.375 2.242188 176.617188 4.484375 L 332.472656 160.339844 C 336.960938 164.824219 336.960938 172.132812 332.472656 176.578125 L 176.617188 332.472656 C 174.375 334.714844 171.429688 335.839844 168.480469 335.839844 C 165.53125 335.839844 162.582031 334.714844 160.339844 332.472656 L 4.484375 176.617188 L 160.382812 332.515625 C 164.867188 337 172.175781 337 176.617188 332.515625 L 332.515625 176.617188 C 336.960938 172.132812 336.960938 164.824219 332.472656 160.339844 Z M 332.472656 160.339844 " fill-opacity="1" fill-rule="nonzero"/><path fill="#100818" d="M 168.480469 335.839844 C 171.429688 335.839844 174.375 334.714844 176.617188 332.472656 L 332.515625 176.578125 C 337 172.09375 337 164.785156 332.515625 160.339844 L 176.617188 4.484375 C 174.375 2.242188 171.429688 1.121094 168.480469 1.121094 C 165.53125 1.121094 162.582031 2.242188 160.339844 4.484375 L 4.484375 160.339844 C 0 164.824219 0 172.132812 4.484375 176.578125 L 160.382812 332.472656 C 162.582031 334.714844 165.53125 335.839844 168.480469 335.839844 Z M 2.035156 172.796875 C 1.496094 171.429688 1.203125 169.976562 1.203125 168.480469 C 1.203125 166.984375 1.496094 165.53125 2.035156 164.160156 C 2.617188 162.75 3.445312 161.460938 4.527344 160.382812 L 160.382812 4.527344 C 161.460938 3.445312 162.75 2.617188 164.160156 2.035156 C 165.53125 1.496094 166.984375 1.203125 168.480469 1.203125 C 169.976562 1.203125 171.429688 1.496094 172.796875 2.035156 C 174.210938 2.617188 175.496094 3.445312 176.578125 4.527344 L 332.472656 160.421875 C 333.554688 161.503906 334.382812 162.789062 334.964844 164.203125 C 335.503906 165.574219 335.796875 167.027344 335.796875 168.519531 C 335.796875 170.015625 335.503906 171.46875 334.964844 172.839844 C 334.382812 174.253906 333.554688 175.539062 332.472656 176.617188 L 176.578125 332.433594 C 175.496094 333.511719 174.210938 334.34375 172.796875 334.925781 C 171.429688 335.464844 169.976562 335.753906 168.480469 335.753906 C 166.984375 335.753906 165.53125 335.464844 164.160156 334.925781 C 162.75 334.34375 161.460938 333.511719 160.382812 332.433594 L 4.527344 176.578125 C 3.445312 175.457031 2.617188 174.210938 2.035156 172.796875 Z M 2.035156 172.796875 " fill-opacity="1" fill-rule="nonzero"/><path fill="#fbc730" d="M 328.859375 164.867188 C 329.816406 165.820312 330.355469 167.109375 330.355469 168.480469 C 330.355469 169.394531 330.105469 170.308594 329.648438 171.054688 C 330.105469 170.265625 330.355469 169.394531 330.355469 168.480469 C 330.355469 167.109375 329.816406 165.820312 328.859375 164.867188 L 172.09375 8.097656 C 171.71875 7.722656 171.34375 7.433594 170.886719 7.226562 C 171.34375 7.476562 171.71875 7.765625 172.09375 8.097656 Z M 328.859375 164.867188 " fill-opacity="1" fill-rule="nonzero"/><path fill="#fbc730" d="M 183.84375 148.710938 L 183.84375 149.128906 C 183.84375 149.085938 183.886719 149.003906 183.886719 148.960938 C 183.84375 148.878906 183.84375 148.796875 183.84375 148.710938 Z M 183.84375 148.710938 " fill-opacity="1" fill-rule="nonzero"/><path fill="#fbc730" d="M 8.097656 164.867188 C 8.015625 164.949219 7.890625 165.074219 7.808594 165.199219 C 7.890625 165.074219 7.972656 164.949219 8.097656 164.867188 Z M 8.097656 164.867188 " fill-opacity="1" fill-rule="nonzero"/><path fill="#fbc730" d="M 164.867188 328.859375 C 165.820312 329.816406 167.109375 330.355469 168.480469 330.355469 C 169.851562 330.355469 171.136719 329.816406 172.09375 328.859375 L 278.984375 221.96875 L 172.09375 328.859375 C 171.136719 329.816406 169.851562 330.355469 168.480469 330.355469 C 167.109375 330.355469 165.820312 329.816406 164.867188 328.859375 L 8.097656 172.09375 C 7.765625 171.761719 7.476562 171.386719 7.265625 170.972656 C 7.476562 171.386719 7.765625 171.761719 8.097656 172.09375 Z M 164.867188 328.859375 " fill-opacity="1" fill-rule="nonzero"/><path fill="#fbc730" d="M 167.816406 325.953125 C 167.980469 326.121094 168.230469 326.203125 168.480469 326.203125 C 168.769531 326.203125 168.976562 326.121094 169.144531 325.953125 L 325.914062 169.1875 C 326.078125 169.019531 326.160156 168.769531 326.160156 168.519531 C 326.160156 168.230469 326.078125 168.023438 325.914062 167.855469 L 169.144531 11.003906 C 168.976562 10.839844 168.730469 10.753906 168.480469 10.753906 C 168.1875 10.753906 167.980469 10.839844 167.816406 11.003906 L 11.003906 167.816406 C 10.839844 167.980469 10.753906 168.230469 10.753906 168.480469 C 10.753906 168.769531 10.839844 168.976562 11.003906 169.144531 Z M 211.003906 184.59375 C 211.046875 183.886719 211.335938 183.140625 211.710938 182.433594 C 211.792969 182.265625 211.875 182.101562 211.960938 181.976562 C 212.375 181.269531 212.875 180.5625 212.75 179.734375 C 212.332031 176.703125 212.789062 173.796875 214.492188 171.136719 C 214.785156 170.679688 214.203125 169.976562 214.078125 169.351562 C 214.035156 169.1875 213.953125 168.976562 213.910156 168.8125 C 213.746094 168.3125 213.621094 167.898438 213.621094 167.898438 C 213.621094 167.898438 213.910156 167.273438 214.453125 167.273438 C 214.992188 167.273438 216.695312 168.5625 216.695312 168.5625 L 218.0625 168.3125 C 218.394531 168.273438 219.394531 167.691406 220.058594 167.234375 C 220.183594 167.152344 220.308594 167.066406 220.429688 166.984375 C 221.097656 166.527344 221.675781 165.90625 222.464844 165.738281 C 226.453125 164.699219 230.148438 163.871094 233.71875 161.628906 C 237.457031 159.261719 241.609375 159.71875 245.304688 161.585938 C 245.472656 161.667969 245.679688 161.753906 245.804688 161.792969 C 246.136719 161.917969 246.386719 162.085938 246.550781 162.167969 C 247.382812 162.625 248.296875 162.664062 249.375 162.75 C 249.917969 162.789062 250.871094 162.625 251.910156 162.457031 C 252.074219 162.417969 252.242188 162.375 252.40625 162.375 C 259.300781 161.460938 266.652344 160.671875 273.378906 162.875 C 273.503906 162.914062 273.585938 162.957031 273.710938 162.996094 C 278.03125 164.410156 280.8125 168.105469 282.847656 172.050781 C 282.929688 172.21875 283.015625 172.382812 283.097656 172.550781 C 283.679688 173.710938 284.175781 174.875 284.882812 175.996094 C 284.964844 176.121094 285.050781 176.246094 285.132812 176.371094 C 285.671875 177.242188 285.753906 178.320312 285.628906 179.277344 C 285.171875 182.390625 284.839844 185.339844 285.171875 188.414062 C 285.171875 188.539062 285.171875 188.703125 285.214844 188.828125 C 285.257812 189.242188 285.296875 189.699219 285.382812 190.15625 C 285.421875 190.488281 285.714844 190.695312 285.796875 191.03125 C 285.878906 191.195312 285.960938 191.363281 286.046875 191.484375 C 286.667969 192.730469 287.125 193.976562 287.789062 195.222656 C 288.164062 195.886719 288.621094 196.386719 288.871094 197.050781 C 288.996094 197.339844 289.160156 197.589844 289.078125 197.921875 C 289.035156 198.089844 288.996094 198.253906 288.953125 198.421875 C 288.660156 199.375 287.914062 200.25 287.207031 200.914062 C 287.167969 200.953125 287.125 200.996094 287.042969 201.078125 C 286.917969 201.203125 286.667969 201.328125 286.417969 201.496094 C 286.292969 201.578125 286.171875 201.660156 286.003906 201.703125 C 285.132812 202.367188 284.136719 202.78125 283.054688 203.074219 C 282.890625 203.113281 282.765625 203.15625 282.597656 203.15625 C 282.140625 203.238281 281.683594 203.320312 281.226562 203.40625 C 281.0625 203.445312 280.9375 203.445312 280.773438 203.488281 C 279.859375 203.652344 278.945312 203.695312 278.03125 203.445312 C 277.40625 203.320312 276.039062 202.574219 276.703125 201.953125 C 277.78125 200.828125 279.898438 200.996094 280.480469 199.417969 C 280.523438 199.335938 280.023438 199.292969 279.816406 199.167969 C 279.691406 199.128906 279.609375 199.085938 279.527344 199.003906 C 279.441406 198.960938 279.316406 198.878906 279.234375 198.796875 C 277.617188 197.507812 276.160156 196.011719 274.832031 194.433594 C 274.707031 194.308594 274.625 194.183594 274.5 194.019531 C 274.375 193.894531 274.292969 193.769531 274.167969 193.605469 C 274.042969 193.4375 273.960938 193.3125 273.835938 193.1875 C 272.964844 191.820312 272.507812 190.074219 270.804688 189.535156 C 270.886719 189.824219 270.761719 189.992188 270.679688 190.242188 C 270.097656 191.277344 269.683594 192.273438 269.394531 193.355469 C 269.351562 193.480469 269.308594 193.5625 269.269531 193.6875 C 268.644531 195.390625 268.023438 196.96875 268.023438 196.96875 C 268.023438 196.96875 267.273438 199.042969 266.609375 200.375 C 266.527344 200.539062 266.484375 200.664062 266.402344 200.789062 C 266.027344 201.453125 265.238281 201.703125 264.574219 201.785156 C 264.449219 201.828125 264.285156 201.828125 264.117188 201.828125 C 263.660156 201.867188 263.246094 201.910156 262.832031 202.035156 C 262.664062 202.074219 262.5 202.074219 262.332031 202.117188 C 262.167969 202.160156 262 202.160156 261.835938 202.199219 C 261.667969 202.242188 261.503906 202.242188 261.335938 202.285156 C 260.507812 202.40625 259.632812 202.449219 258.804688 202.492188 C 258.679688 202.492188 258.554688 202.492188 258.429688 202.492188 C 257.804688 202.617188 256.894531 202.699219 256.144531 202.617188 C 256.019531 202.617188 255.894531 202.574219 255.773438 202.574219 C 255.605469 202.53125 255.480469 202.492188 255.316406 202.40625 C 255.230469 202.324219 255.148438 202.242188 255.066406 202.117188 C 254.984375 202.035156 254.898438 201.910156 254.816406 201.785156 C 254.691406 201.660156 254.609375 201.535156 254.566406 201.371094 C 254.402344 200.871094 254.359375 200.125 254.898438 199.792969 C 255.023438 199.707031 255.191406 199.667969 255.398438 199.625 C 255.480469 199.585938 255.605469 199.542969 255.6875 199.542969 C 255.773438 199.5 255.894531 199.460938 255.980469 199.417969 C 256.144531 199.375 256.3125 199.335938 256.4375 199.253906 C 256.601562 199.210938 256.726562 199.128906 256.894531 199.085938 C 257.019531 199.042969 257.140625 199.003906 257.265625 198.960938 C 257.351562 198.917969 257.472656 198.917969 257.558594 198.878906 C 257.640625 198.835938 257.722656 198.835938 257.847656 198.796875 C 258.015625 198.753906 258.179688 198.710938 258.347656 198.671875 C 258.84375 198.546875 259.382812 198.503906 259.882812 198.464844 C 260.171875 198.464844 259.800781 197.796875 259.632812 197.425781 C 259.550781 197.257812 259.46875 197.09375 259.382812 196.925781 C 258.429688 194.765625 258.179688 192.316406 258.84375 190.117188 C 258.929688 189.824219 257.929688 190.199219 257.351562 190.15625 C 257.183594 190.15625 257.058594 190.15625 256.894531 190.15625 C 256.269531 190.117188 255.6875 189.992188 255.105469 189.660156 C 254.984375 189.574219 254.816406 189.535156 254.691406 189.453125 C 254.566406 189.367188 254.402344 189.328125 254.277344 189.242188 C 254.195312 189.203125 254.109375 189.160156 253.984375 189.117188 C 253.613281 188.953125 253.238281 188.785156 252.90625 188.703125 C 252.78125 188.664062 252.699219 188.621094 252.574219 188.621094 C 252.074219 188.539062 251.703125 188.621094 251.371094 188.828125 C 251.246094 188.910156 251.164062 188.996094 251.039062 189.078125 C 250.914062 189.160156 250.789062 189.242188 250.664062 189.328125 C 249.585938 189.992188 248.585938 191.070312 248.339844 192.316406 C 248.296875 192.441406 248.296875 192.609375 248.296875 192.730469 C 248.296875 193.1875 248.171875 193.644531 248.339844 194.144531 C 248.464844 194.640625 248.710938 195.058594 248.917969 195.515625 C 249.003906 195.679688 249.128906 195.847656 249.210938 196.011719 C 249.335938 196.179688 249.460938 196.304688 249.585938 196.429688 C 250.582031 197.382812 251.785156 197.796875 252.988281 198.546875 C 253.113281 198.628906 253.195312 198.796875 253.28125 198.878906 C 253.363281 199.003906 253.40625 199.128906 253.445312 199.253906 C 253.488281 199.375 253.53125 199.542969 253.53125 199.667969 C 253.445312 199.75 253.363281 199.832031 253.28125 199.957031 C 253.195312 200.039062 253.113281 200.164062 253.03125 200.25 C 252.863281 200.457031 252.65625 200.621094 252.449219 200.828125 C 252.324219 200.914062 252.242188 200.996094 252.117188 201.078125 C 251.246094 201.535156 250.25 201.328125 249.375 201.121094 C 249.210938 201.078125 249.085938 201.078125 248.960938 201.039062 C 248.835938 200.996094 248.753906 200.953125 248.628906 200.953125 C 248.546875 200.914062 248.421875 200.871094 248.339844 200.828125 C 248.171875 200.746094 248.007812 200.707031 247.882812 200.621094 C 247.714844 200.539062 247.589844 200.457031 247.464844 200.414062 C 247.339844 200.332031 247.21875 200.25 247.09375 200.164062 C 246.511719 199.707031 246.011719 199.128906 245.640625 198.546875 C 245.554688 198.421875 245.429688 198.296875 245.347656 198.171875 C 244.933594 197.675781 244.558594 197.132812 244.1875 196.675781 C 244.101562 196.59375 244.0625 196.511719 243.976562 196.46875 C 243.1875 195.679688 242.273438 195.015625 241.570312 194.144531 C 241.363281 194.519531 241.195312 194.890625 241.03125 195.265625 C 240.988281 195.390625 240.90625 195.515625 240.863281 195.640625 C 239.824219 197.675781 238.496094 199.875 236.542969 201.078125 C 236.417969 201.164062 236.253906 201.246094 236.128906 201.328125 C 234.59375 202.160156 232.890625 202.988281 231.6875 203.40625 C 229.152344 204.320312 226.621094 204.027344 226.621094 204.027344 C 226.621094 204.027344 224.667969 203.902344 224.167969 202.949219 C 224.085938 202.78125 224.085938 202.617188 224.085938 202.449219 C 224.167969 201.910156 224.375 201.203125 224.832031 201.078125 C 227.65625 200.332031 231.3125 200.125 231.601562 196.511719 C 231.644531 196.34375 231.6875 196.136719 231.769531 196.011719 C 231.894531 195.554688 231.976562 195.222656 231.976562 195.222656 C 232.058594 195.015625 232.140625 194.765625 232.226562 194.433594 C 232.265625 194.269531 232.308594 194.101562 232.308594 193.894531 C 232.558594 191.609375 232.722656 189.328125 232.515625 187 C 232.476562 186.296875 232.058594 185.671875 231.6875 185.050781 C 231.601562 184.882812 231.476562 184.71875 231.351562 184.59375 C 229.109375 181.726562 224.585938 183.222656 221.550781 184.011719 C 221.34375 184.050781 221.179688 184.09375 221.011719 184.136719 C 220.515625 184.261719 220.222656 184.34375 220.222656 184.34375 C 220.058594 184.34375 219.726562 184.46875 219.308594 184.675781 C 219.1875 184.71875 219.019531 184.800781 218.894531 184.882812 C 217.730469 185.382812 216.695312 186.128906 215.488281 186.628906 C 214.492188 187.042969 213.246094 186.917969 212.25 186.335938 C 212.125 186.253906 212 186.171875 211.875 186.085938 C 211.753906 186.003906 211.628906 185.921875 211.542969 185.839844 C 211.253906 185.671875 211.171875 185.339844 211.128906 184.964844 C 211.003906 184.882812 211.003906 184.71875 211.003906 184.59375 Z M 41.945312 169.226562 C 42.027344 167.691406 42.691406 166.113281 43.480469 164.617188 C 43.644531 164.285156 43.855469 163.953125 44.019531 163.621094 C 44.933594 162.085938 45.972656 160.628906 45.722656 158.84375 C 44.851562 152.449219 45.804688 146.261719 49.375 140.613281 C 49.957031 139.617188 48.796875 138.164062 48.464844 136.835938 C 48.339844 136.460938 48.214844 136.046875 48.132812 135.714844 C 47.800781 134.632812 47.507812 133.761719 47.507812 133.761719 C 47.507812 133.761719 48.089844 132.390625 49.292969 132.390625 C 50.5 132.390625 54.027344 135.089844 54.027344 135.089844 L 56.933594 134.59375 C 57.640625 134.507812 59.71875 133.222656 61.171875 132.265625 C 61.460938 132.058594 61.710938 131.894531 61.960938 131.726562 C 63.371094 130.730469 64.617188 129.484375 66.277344 129.070312 C 74.75 126.910156 82.597656 125.125 90.199219 120.308594 C 98.132812 115.28125 106.976562 116.277344 114.785156 120.265625 C 115.15625 120.429688 115.53125 120.597656 115.863281 120.765625 C 116.527344 121.054688 117.109375 121.34375 117.441406 121.554688 C 119.1875 122.550781 121.179688 122.589844 123.464844 122.757812 C 124.585938 122.839844 126.660156 122.507812 128.820312 122.132812 C 129.195312 122.050781 129.527344 122.007812 129.898438 121.925781 C 144.558594 119.976562 160.175781 118.273438 174.417969 123.007812 C 174.667969 123.089844 174.875 123.171875 175.125 123.253906 C 184.300781 126.246094 190.242188 134.09375 194.519531 142.484375 C 194.683594 142.816406 194.890625 143.1875 195.058594 143.519531 C 196.304688 146.011719 197.382812 148.421875 198.835938 150.832031 C 199.003906 151.078125 199.167969 151.371094 199.335938 151.621094 C 200.496094 153.488281 200.707031 155.773438 200.414062 157.808594 C 199.460938 164.410156 198.753906 170.722656 199.460938 177.242188 C 199.460938 177.53125 199.5 177.863281 199.5 178.15625 C 199.542969 179.070312 199.667969 179.984375 199.832031 180.9375 C 199.917969 181.644531 200.496094 182.101562 200.746094 182.808594 C 200.914062 183.140625 201.078125 183.472656 201.246094 183.804688 C 202.53125 186.460938 203.570312 189.078125 204.941406 191.734375 C 205.730469 193.105469 206.683594 194.183594 207.265625 195.554688 C 207.558594 196.136719 207.847656 196.71875 207.683594 197.425781 C 207.640625 197.757812 207.558594 198.128906 207.433594 198.464844 C 206.769531 200.496094 205.191406 202.367188 203.738281 203.738281 C 203.695312 203.820312 203.53125 203.945312 203.363281 204.070312 C 203.074219 204.320312 202.617188 204.609375 202.074219 204.898438 C 201.828125 205.066406 201.535156 205.230469 201.203125 205.355469 C 199.335938 206.726562 197.175781 207.683594 194.933594 208.222656 C 194.601562 208.304688 194.269531 208.386719 193.9375 208.429688 C 192.941406 208.597656 191.984375 208.761719 190.988281 208.929688 C 190.65625 208.96875 190.324219 209.050781 189.992188 209.09375 C 188.039062 209.46875 186.085938 209.550781 184.175781 208.96875 C 182.808594 208.679688 179.941406 207.101562 181.394531 205.8125 C 183.71875 203.445312 188.164062 203.738281 189.410156 200.414062 C 189.492188 200.207031 188.453125 200.125 187.957031 199.832031 C 187.707031 199.75 187.5 199.625 187.375 199.460938 C 187.167969 199.335938 186.960938 199.210938 186.753906 199.042969 C 183.304688 196.304688 180.230469 193.148438 177.40625 189.785156 C 177.160156 189.492188 176.953125 189.203125 176.703125 188.953125 C 176.453125 188.664062 176.246094 188.371094 175.996094 188.082031 C 175.746094 187.789062 175.539062 187.5 175.289062 187.207031 C 173.464844 184.261719 172.507812 180.605469 168.851562 179.441406 C 169.0625 180.023438 168.769531 180.441406 168.5625 180.9375 C 167.316406 183.097656 166.445312 185.257812 165.78125 187.542969 C 165.695312 187.789062 165.613281 188.039062 165.488281 188.246094 C 164.117188 191.820312 162.875 195.183594 162.875 195.183594 C 162.875 195.183594 161.253906 199.625 159.882812 202.40625 C 159.71875 202.699219 159.59375 202.988281 159.425781 203.28125 C 158.597656 204.691406 156.976562 205.273438 155.523438 205.398438 C 155.230469 205.441406 154.898438 205.480469 154.609375 205.523438 C 153.652344 205.648438 152.699219 205.730469 151.828125 205.980469 C 151.496094 206.019531 151.164062 206.105469 150.789062 206.144531 C 150.457031 206.1875 150.125 206.269531 149.75 206.3125 C 149.417969 206.351562 149.085938 206.394531 148.710938 206.476562 C 146.96875 206.726562 145.097656 206.851562 143.3125 206.894531 C 143.0625 206.894531 142.816406 206.894531 142.523438 206.933594 C 141.195312 207.183594 139.285156 207.390625 137.625 207.226562 C 137.332031 207.183594 137.085938 207.140625 136.835938 207.101562 C 136.503906 207.058594 136.171875 206.933594 135.921875 206.769531 C 135.714844 206.601562 135.546875 206.394531 135.339844 206.1875 C 135.175781 205.980469 134.964844 205.730469 134.84375 205.480469 C 134.632812 205.230469 134.425781 204.941406 134.300781 204.609375 C 133.96875 203.53125 133.886719 201.953125 135.050781 201.246094 C 135.339844 201.078125 135.671875 200.996094 136.085938 200.953125 C 136.296875 200.871094 136.503906 200.789062 136.710938 200.746094 C 136.917969 200.664062 137.125 200.621094 137.292969 200.539062 C 137.625 200.414062 137.957031 200.332031 138.289062 200.207031 C 138.621094 200.082031 138.953125 200 139.242188 199.875 C 139.492188 199.792969 139.742188 199.707031 140.03125 199.667969 C 140.242188 199.625 140.449219 199.542969 140.613281 199.5 C 140.820312 199.460938 140.988281 199.375 141.195312 199.335938 C 141.570312 199.253906 141.902344 199.167969 142.273438 199.085938 C 143.355469 198.878906 144.476562 198.753906 145.515625 198.671875 C 146.097656 198.671875 145.308594 197.300781 145.015625 196.46875 C 144.851562 196.136719 144.683594 195.761719 144.519531 195.429688 C 142.484375 190.863281 141.984375 185.671875 143.398438 180.980469 C 143.605469 180.398438 141.484375 181.1875 140.242188 181.0625 C 139.90625 181.0625 139.574219 181.0625 139.242188 181.0625 C 137.957031 181.019531 136.667969 180.6875 135.421875 180.023438 C 135.132812 179.898438 134.800781 179.734375 134.507812 179.609375 C 134.21875 179.484375 133.886719 179.359375 133.597656 179.195312 C 133.386719 179.109375 133.222656 179.027344 133.015625 178.945312 C 132.226562 178.613281 131.476562 178.28125 130.730469 178.03125 C 130.480469 177.949219 130.273438 177.863281 130.023438 177.824219 C 128.984375 177.617188 128.15625 177.824219 127.449219 178.320312 C 127.199219 178.488281 126.992188 178.652344 126.785156 178.902344 C 126.535156 179.070312 126.285156 179.234375 125.996094 179.441406 C 123.710938 180.855469 121.59375 183.140625 121.054688 185.839844 C 121.011719 186.128906 120.972656 186.417969 120.929688 186.753906 C 120.886719 187.75 120.679688 188.746094 120.972656 189.699219 C 121.261719 190.78125 121.761719 191.652344 122.21875 192.648438 C 122.425781 193.023438 122.632812 193.355469 122.839844 193.6875 C 123.089844 194.019531 123.339844 194.308594 123.585938 194.558594 C 125.664062 196.59375 128.28125 197.464844 130.773438 199.042969 C 131.0625 199.253906 131.269531 199.542969 131.394531 199.75 C 131.5625 200 131.6875 200.289062 131.769531 200.539062 C 131.851562 200.828125 131.894531 201.121094 131.933594 201.453125 C 131.769531 201.617188 131.601562 201.828125 131.4375 202.035156 C 131.269531 202.242188 131.105469 202.449219 130.898438 202.65625 C 130.523438 203.074219 130.148438 203.488281 129.691406 203.863281 C 129.484375 204.027344 129.234375 204.195312 128.945312 204.359375 C 127.074219 205.316406 124.957031 204.941406 123.089844 204.484375 C 122.757812 204.402344 122.464844 204.359375 122.175781 204.320312 C 121.925781 204.234375 121.71875 204.195312 121.511719 204.109375 C 121.304688 204.027344 121.097656 203.945312 120.886719 203.863281 C 120.554688 203.738281 120.222656 203.570312 119.890625 203.40625 C 119.558594 203.238281 119.269531 203.074219 118.976562 202.949219 C 118.6875 202.78125 118.4375 202.574219 118.1875 202.367188 C 116.941406 201.371094 115.863281 200.125 115.117188 198.917969 C 114.910156 198.671875 114.699219 198.378906 114.492188 198.128906 C 113.664062 197.050781 112.875 195.929688 112.042969 194.972656 C 111.917969 194.808594 111.753906 194.640625 111.542969 194.519531 C 109.882812 192.816406 107.972656 191.445312 106.4375 189.574219 C 106.019531 190.40625 105.648438 191.195312 105.316406 191.984375 C 105.191406 192.234375 105.109375 192.523438 104.984375 192.773438 C 102.78125 197.132812 99.957031 201.742188 95.804688 204.320312 C 95.515625 204.484375 95.222656 204.652344 94.933594 204.816406 C 91.695312 206.644531 88.082031 208.304688 85.507812 209.21875 C 80.066406 211.128906 74.710938 210.507812 74.710938 210.507812 C 74.710938 210.507812 70.515625 210.257812 69.476562 208.261719 C 69.308594 207.929688 69.269531 207.558594 69.351562 207.226562 C 69.476562 206.105469 69.976562 204.609375 70.929688 204.320312 C 76.910156 202.742188 84.71875 202.242188 85.296875 194.640625 C 85.421875 194.269531 85.507812 193.894531 85.589844 193.5625 C 85.878906 192.566406 86.046875 191.859375 86.046875 191.859375 C 86.253906 191.445312 86.421875 190.863281 86.542969 190.15625 C 86.628906 189.824219 86.667969 189.410156 86.753906 188.996094 C 87.25 184.136719 87.625 179.320312 87.167969 174.417969 C 87.085938 172.921875 86.210938 171.554688 85.421875 170.265625 C 85.214844 169.890625 84.964844 169.601562 84.757812 169.269531 C 80.023438 163.164062 70.390625 166.320312 63.910156 168.023438 C 63.496094 168.148438 63.121094 168.230469 62.789062 168.3125 C 61.753906 168.605469 61.085938 168.769531 61.085938 168.769531 C 60.714844 168.8125 60.007812 169.0625 59.09375 169.476562 C 58.804688 169.601562 58.472656 169.765625 58.179688 169.890625 C 55.6875 170.972656 53.488281 172.550781 50.996094 173.628906 C 48.878906 174.5 46.261719 174.210938 44.101562 173.046875 C 43.8125 172.882812 43.5625 172.714844 43.3125 172.507812 C 43.066406 172.339844 42.816406 172.132812 42.609375 171.925781 C 42.027344 171.554688 41.820312 170.847656 41.777344 170.097656 C 41.945312 169.808594 41.945312 169.519531 41.945312 169.226562 Z M 41.945312 169.226562 " fill-opacity="1" fill-rule="nonzero"/><path fill="#100818" d="M 278.984375 221.96875 L 328.859375 172.09375 C 329.195312 171.761719 329.441406 171.429688 329.648438 171.054688 C 329.441406 171.429688 329.152344 171.761719 328.859375 172.09375 Z M 278.984375 221.96875 " fill-opacity="1" fill-rule="nonzero"/><path fill="#100818" d="M 7.765625 165.242188 C 7.765625 165.242188 7.808594 165.199219 7.808594 165.199219 C 7.765625 165.199219 7.765625 165.199219 7.765625 165.242188 Z M 7.765625 165.242188 " fill-opacity="1" fill-rule="nonzero"/><path fill="#100818" d="M 7.722656 165.242188 C 6.976562 166.152344 6.601562 167.273438 6.601562 168.480469 C 6.601562 169.394531 6.8125 170.222656 7.265625 170.972656 C 6.851562 170.222656 6.601562 169.351562 6.601562 168.480469 C 6.601562 167.273438 7.019531 166.152344 7.722656 165.242188 Z M 7.722656 165.242188 " fill-opacity="1" fill-rule="nonzero"/><path fill="#100818" d="M 168.480469 6.601562 C 169.351562 6.601562 170.183594 6.8125 170.886719 7.183594 C 170.183594 6.8125 169.351562 6.601562 168.480469 6.601562 C 167.109375 6.601562 165.820312 7.144531 164.867188 8.097656 L 8.097656 164.867188 L 164.867188 8.097656 C 165.820312 7.144531 167.109375 6.601562 168.480469 6.601562 Z M 168.480469 6.601562 " fill-opacity="1" fill-rule="nonzero"/><path fill="#100818" d="M 164.867188 328.859375 C 165.820312 329.816406 167.109375 330.355469 168.480469 330.355469 C 169.851562 330.355469 171.136719 329.816406 172.09375 328.859375 L 328.859375 172.09375 C 329.195312 171.761719 329.441406 171.429688 329.648438 171.054688 C 330.105469 170.265625 330.355469 169.394531 330.355469 168.480469 C 330.355469 167.109375 329.816406 165.820312 328.859375 164.867188 L 172.09375 8.097656 C 171.71875 7.722656 171.34375 7.433594 170.886719 7.226562 C 170.140625 6.851562 169.351562 6.644531 168.480469 6.644531 C 167.109375 6.644531 165.820312 7.183594 164.867188 8.140625 L 8.097656 164.867188 C 8.015625 164.949219 7.890625 165.074219 7.808594 165.199219 C 7.808594 165.199219 7.765625 165.242188 7.765625 165.242188 C 7.765625 165.242188 7.765625 165.242188 7.765625 165.28125 C 7.019531 166.195312 6.644531 167.316406 6.644531 168.519531 C 6.644531 169.433594 6.851562 170.265625 7.308594 171.011719 C 7.515625 171.429688 7.808594 171.800781 8.140625 172.132812 Z M 11.003906 167.816406 L 167.816406 11.003906 C 167.980469 10.839844 168.230469 10.753906 168.480469 10.753906 C 168.769531 10.753906 168.976562 10.839844 169.144531 11.003906 L 325.914062 167.773438 C 326.078125 167.941406 326.160156 168.1875 326.160156 168.4375 C 326.160156 168.730469 326.078125 168.9375 325.914062 169.101562 L 169.144531 325.953125 C 168.976562 326.121094 168.730469 326.203125 168.480469 326.203125 C 168.1875 326.203125 167.980469 326.121094 167.816406 325.953125 L 11.003906 169.144531 C 10.839844 168.976562 10.753906 168.730469 10.753906 168.480469 C 10.753906 168.1875 10.839844 167.980469 11.003906 167.816406 Z M 11.003906 167.816406 " fill-opacity="1" fill-rule="nonzero"/><path fill="#100818" d="M 42.816406 171.925781 C 43.066406 172.132812 43.273438 172.300781 43.519531 172.507812 C 43.769531 172.675781 44.019531 172.882812 44.308594 173.046875 C 46.46875 174.210938 49.085938 174.5 51.203125 173.628906 C 53.695312 172.550781 55.9375 170.972656 58.386719 169.890625 C 58.722656 169.726562 59.011719 169.601562 59.300781 169.476562 C 60.175781 169.101562 60.878906 168.8125 61.296875 168.769531 C 61.296875 168.769531 61.960938 168.605469 63 168.3125 C 63.332031 168.230469 63.703125 168.105469 64.121094 168.023438 C 70.597656 166.320312 80.191406 163.164062 84.964844 169.269531 C 85.214844 169.558594 85.421875 169.890625 85.632812 170.265625 C 86.378906 171.59375 87.25 172.964844 87.375 174.417969 C 87.875 179.359375 87.457031 184.175781 86.960938 188.996094 C 86.917969 189.410156 86.835938 189.785156 86.753906 190.15625 C 86.628906 190.863281 86.460938 191.445312 86.253906 191.859375 C 86.253906 191.859375 86.085938 192.566406 85.796875 193.5625 C 85.714844 193.894531 85.589844 194.269531 85.507812 194.640625 C 84.964844 202.285156 77.117188 202.742188 71.136719 204.320312 C 70.183594 204.609375 69.683594 206.105469 69.558594 207.226562 C 69.476562 207.558594 69.519531 207.929688 69.683594 208.261719 C 70.722656 210.257812 74.917969 210.507812 74.917969 210.507812 C 74.917969 210.507812 80.273438 211.128906 85.714844 209.21875 C 88.332031 208.304688 91.902344 206.601562 95.140625 204.816406 C 95.429688 204.652344 95.722656 204.484375 96.011719 204.316406 C 100.164062 201.742188 102.988281 197.132812 105.191406 192.773438 C 105.316406 192.484375 105.398438 192.234375 105.523438 191.984375 C 105.855469 191.195312 106.230469 190.363281 106.644531 189.574219 C 108.179688 191.445312 110.132812 192.816406 111.753906 194.519531 C 111.917969 194.640625 112.085938 194.808594 112.25 194.972656 C 113.039062 195.929688 113.871094 197.050781 114.699219 198.128906 C 114.910156 198.421875 115.117188 198.671875 115.324219 198.917969 C 116.113281 200.125 117.191406 201.371094 118.398438 202.367188 C 118.644531 202.574219 118.894531 202.742188 119.1875 202.949219 C 119.476562 203.113281 119.765625 203.28125 120.097656 203.40625 C 120.429688 203.570312 120.722656 203.695312 121.097656 203.863281 C 121.304688 203.945312 121.511719 204.027344 121.71875 204.109375 C 121.925781 204.195312 122.175781 204.234375 122.382812 204.320312 C 122.675781 204.359375 123.007812 204.441406 123.296875 204.484375 C 125.164062 204.941406 127.285156 205.316406 129.152344 204.359375 C 129.441406 204.234375 129.652344 204.027344 129.898438 203.863281 C 130.355469 203.488281 130.730469 203.074219 131.105469 202.65625 C 131.269531 202.449219 131.476562 202.242188 131.644531 202.035156 C 131.808594 201.828125 131.976562 201.617188 132.140625 201.453125 C 132.140625 201.121094 132.101562 200.828125 131.976562 200.539062 C 131.894531 200.25 131.769531 200 131.601562 199.75 C 131.4375 199.542969 131.269531 199.210938 130.980469 199.042969 C 128.488281 197.464844 125.871094 196.59375 123.796875 194.558594 C 123.503906 194.308594 123.253906 194.019531 123.046875 193.6875 C 122.796875 193.355469 122.589844 193.023438 122.425781 192.648438 C 121.925781 191.652344 121.46875 190.78125 121.179688 189.699219 C 120.886719 188.703125 121.097656 187.75 121.136719 186.753906 C 121.136719 186.460938 121.179688 186.128906 121.261719 185.839844 C 121.800781 183.179688 123.878906 180.855469 126.203125 179.441406 C 126.453125 179.277344 126.703125 179.070312 126.992188 178.902344 C 127.199219 178.695312 127.449219 178.488281 127.65625 178.320312 C 128.363281 177.824219 129.195312 177.617188 130.230469 177.824219 C 130.441406 177.863281 130.6875 177.949219 130.9375 178.03125 C 131.644531 178.28125 132.433594 178.613281 133.222656 178.945312 C 133.429688 179.027344 133.597656 179.109375 133.804688 179.195312 C 134.09375 179.320312 134.425781 179.441406 134.71875 179.609375 C 135.007812 179.734375 135.296875 179.898438 135.632812 180.023438 C 136.835938 180.6875 138.121094 181.019531 139.453125 181.0625 C 139.785156 181.0625 140.117188 181.0625 140.449219 181.0625 C 141.652344 181.1875 143.769531 180.398438 143.605469 180.980469 C 142.191406 185.714844 142.691406 190.863281 144.726562 195.429688 C 144.890625 195.761719 145.058594 196.136719 145.222656 196.46875 C 145.515625 197.300781 146.304688 198.671875 145.722656 198.671875 C 144.640625 198.710938 143.5625 198.835938 142.484375 199.085938 C 142.109375 199.167969 141.777344 199.25 141.402344 199.335938 C 141.195312 199.375 141.03125 199.417969 140.820312 199.5 C 140.613281 199.542969 140.40625 199.625 140.242188 199.667969 C 139.992188 199.707031 139.699219 199.792969 139.453125 199.875 C 139.160156 200 138.828125 200.125 138.496094 200.207031 C 138.164062 200.332031 137.832031 200.414062 137.5 200.539062 C 137.332031 200.621094 137.125 200.707031 136.917969 200.746094 C 136.710938 200.828125 136.503906 200.871094 136.296875 200.953125 C 135.878906 200.996094 135.546875 201.121094 135.257812 201.246094 C 134.09375 201.953125 134.175781 203.53125 134.507812 204.609375 C 134.632812 204.898438 134.84375 205.191406 135.050781 205.480469 C 135.214844 205.730469 135.382812 205.9375 135.546875 206.1875 C 135.714844 206.394531 135.921875 206.601562 136.128906 206.769531 C 136.421875 206.933594 136.710938 207.058594 137.042969 207.101562 C 137.292969 207.140625 137.582031 207.183594 137.832031 207.226562 C 139.453125 207.390625 141.363281 207.140625 142.730469 206.933594 C 142.980469 206.933594 143.230469 206.933594 143.519531 206.894531 C 145.308594 206.851562 147.175781 206.726562 148.921875 206.476562 C 149.253906 206.4375 149.585938 206.394531 149.957031 206.3125 C 150.289062 206.269531 150.621094 206.1875 150.996094 206.144531 C 151.328125 206.105469 151.660156 206.019531 152.035156 205.980469 C 152.90625 205.773438 153.863281 205.648438 154.816406 205.523438 C 155.148438 205.480469 155.441406 205.441406 155.730469 205.398438 C 157.183594 205.273438 158.804688 204.691406 159.632812 203.28125 C 159.800781 203.03125 159.925781 202.742188 160.089844 202.40625 C 161.460938 199.625 163.082031 195.183594 163.082031 195.183594 C 163.082031 195.183594 164.367188 191.820312 165.699219 188.246094 C 165.78125 187.996094 165.863281 187.75 165.988281 187.539062 C 166.652344 185.296875 167.523438 183.097656 168.769531 180.9375 C 168.976562 180.441406 169.269531 180.066406 169.0625 179.441406 C 172.714844 180.605469 173.710938 184.261719 175.496094 187.207031 C 175.746094 187.5 175.953125 187.789062 176.203125 188.082031 C 176.453125 188.371094 176.660156 188.664062 176.910156 188.953125 C 177.160156 189.242188 177.367188 189.535156 177.617188 189.785156 C 180.441406 193.148438 183.511719 196.304688 186.960938 199.042969 C 187.167969 199.167969 187.375 199.335938 187.582031 199.460938 C 187.75 199.625 187.957031 199.75 188.164062 199.832031 C 188.621094 200.125 189.699219 200.207031 189.617188 200.414062 C 188.371094 203.777344 183.929688 203.445312 181.601562 205.8125 C 180.148438 207.101562 183.054688 208.679688 184.386719 208.96875 C 186.296875 209.550781 188.246094 209.46875 190.199219 209.09375 C 190.53125 209.050781 190.863281 209.011719 191.195312 208.929688 C 192.191406 208.761719 193.148438 208.597656 194.144531 208.429688 C 194.476562 208.347656 194.808594 208.304688 195.140625 208.222656 C 197.425781 207.683594 199.585938 206.726562 201.410156 205.355469 C 201.703125 205.191406 201.992188 205.023438 202.285156 204.898438 C 202.824219 204.609375 203.28125 204.277344 203.570312 204.070312 C 203.738281 203.945312 203.863281 203.820312 203.945312 203.738281 C 205.441406 202.367188 206.976562 200.496094 207.640625 198.460938 C 207.765625 198.128906 207.847656 197.757812 207.890625 197.425781 C 208.054688 196.761719 207.765625 196.136719 207.476562 195.554688 C 206.894531 194.183594 205.9375 193.105469 205.148438 191.734375 C 203.777344 189.078125 202.742188 186.460938 201.453125 183.804688 C 201.285156 183.472656 201.121094 183.140625 200.953125 182.808594 C 200.707031 182.101562 200.125 181.601562 200.042969 180.9375 C 199.875 179.984375 199.792969 179.070312 199.707031 178.15625 C 199.707031 177.863281 199.667969 177.53125 199.667969 177.242188 C 199.003906 170.722656 199.667969 164.410156 200.621094 157.808594 C 200.914062 155.730469 200.707031 153.488281 199.542969 151.617188 C 199.375 151.371094 199.210938 151.078125 199.042969 150.832031 C 197.589844 148.421875 196.511719 146.054688 195.265625 143.519531 C 195.097656 143.1875 194.933594 142.816406 194.726562 142.484375 C 190.449219 134.09375 184.507812 126.246094 175.332031 123.253906 C 175.082031 123.171875 174.875 123.089844 174.625 123.007812 C 160.382812 118.273438 144.726562 119.933594 130.109375 121.925781 C 129.734375 122.007812 129.402344 122.050781 129.027344 122.132812 C 126.867188 122.550781 124.832031 122.839844 123.671875 122.757812 C 121.386719 122.589844 119.394531 122.550781 117.648438 121.554688 C 117.316406 121.34375 116.734375 121.097656 116.070312 120.765625 C 115.738281 120.597656 115.363281 120.429688 114.992188 120.265625 C 107.183594 116.277344 98.339844 115.28125 90.40625 120.308594 C 82.765625 125.125 74.957031 126.910156 66.488281 129.070312 C 64.824219 129.441406 63.578125 130.730469 62.167969 131.726562 C 61.960938 131.894531 61.667969 132.058594 61.378906 132.265625 C 59.925781 133.222656 57.847656 134.550781 57.144531 134.59375 L 54.234375 135.089844 C 54.234375 135.089844 50.707031 132.390625 49.5 132.390625 C 48.296875 132.390625 47.714844 133.761719 47.714844 133.761719 C 47.714844 133.761719 48.007812 134.632812 48.339844 135.714844 C 48.464844 136.085938 48.589844 136.460938 48.671875 136.835938 C 49.003906 138.121094 50.167969 139.617188 49.585938 140.613281 C 46.011719 146.21875 45.058594 152.40625 45.929688 158.84375 C 46.222656 160.628906 45.140625 162.085938 44.226562 163.621094 C 44.019531 163.953125 43.855469 164.285156 43.6875 164.617188 C 42.898438 166.113281 42.234375 167.691406 42.152344 169.226562 C 42.152344 169.519531 42.152344 169.851562 42.152344 170.140625 C 42.027344 170.847656 42.234375 171.550781 42.816406 171.925781 Z M 183.84375 148.710938 C 183.84375 148.796875 183.886719 148.878906 183.886719 148.960938 C 183.886719 149.003906 183.886719 149.085938 183.84375 149.128906 Z M 183.84375 148.710938 " fill-opacity="1" fill-rule="nonzero"/><path fill="#100818" d="M 211.417969 185.878906 C 211.542969 185.964844 211.628906 186.046875 211.75 186.128906 C 211.875 186.210938 212 186.296875 212.125 186.378906 C 213.121094 186.917969 214.367188 187.085938 215.363281 186.667969 C 216.527344 186.171875 217.605469 185.421875 218.769531 184.925781 C 218.9375 184.839844 219.0625 184.800781 219.183594 184.71875 C 219.601562 184.550781 219.933594 184.425781 220.097656 184.386719 C 220.097656 184.386719 220.429688 184.300781 220.886719 184.175781 C 221.054688 184.136719 221.21875 184.09375 221.429688 184.050781 C 224.5 183.261719 228.984375 181.769531 231.230469 184.632812 C 231.351562 184.757812 231.4375 184.925781 231.5625 185.089844 C 231.933594 185.714844 232.351562 186.335938 232.390625 187.042969 C 232.597656 189.367188 232.433594 191.652344 232.183594 193.9375 C 232.140625 194.144531 232.140625 194.308594 232.101562 194.476562 C 232.019531 194.808594 231.976562 195.097656 231.851562 195.265625 C 231.851562 195.265625 231.769531 195.597656 231.644531 196.054688 C 231.601562 196.21875 231.5625 196.386719 231.476562 196.550781 C 231.230469 200.125 227.53125 200.375 224.707031 201.121094 C 224.25 201.246094 224.042969 201.953125 223.960938 202.492188 C 223.917969 202.65625 223.960938 202.824219 224.042969 202.988281 C 224.542969 203.945312 226.496094 204.070312 226.496094 204.070312 C 226.496094 204.070312 229.027344 204.359375 231.5625 203.445312 C 232.808594 203.03125 234.46875 202.242188 236.003906 201.371094 C 236.128906 201.285156 236.296875 201.203125 236.417969 201.121094 C 238.371094 199.917969 239.699219 197.714844 240.738281 195.679688 C 240.78125 195.554688 240.863281 195.429688 240.90625 195.308594 C 241.070312 194.933594 241.238281 194.558594 241.445312 194.183594 C 242.191406 195.058594 243.0625 195.722656 243.851562 196.511719 C 243.9375 196.59375 244.019531 196.636719 244.0625 196.71875 C 244.433594 197.175781 244.808594 197.675781 245.222656 198.214844 C 245.308594 198.339844 245.429688 198.464844 245.515625 198.585938 C 245.886719 199.167969 246.386719 199.75 246.96875 200.207031 C 247.09375 200.289062 247.21875 200.375 247.339844 200.457031 C 247.464844 200.539062 247.632812 200.621094 247.757812 200.664062 C 247.921875 200.746094 248.046875 200.789062 248.214844 200.871094 C 248.296875 200.914062 248.421875 200.953125 248.503906 200.996094 C 248.585938 201.039062 248.710938 201.078125 248.835938 201.078125 C 248.960938 201.121094 249.128906 201.121094 249.25 201.164062 C 250.125 201.371094 251.121094 201.578125 251.992188 201.121094 C 252.117188 201.039062 252.242188 200.953125 252.324219 200.871094 C 252.53125 200.707031 252.738281 200.496094 252.90625 200.289062 C 252.988281 200.207031 253.074219 200.082031 253.15625 200 C 253.238281 199.917969 253.320312 199.792969 253.40625 199.707031 C 253.40625 199.542969 253.363281 199.417969 253.320312 199.292969 C 253.28125 199.167969 253.195312 199.042969 253.15625 198.917969 C 253.074219 198.796875 252.988281 198.671875 252.863281 198.585938 C 251.703125 197.839844 250.457031 197.425781 249.460938 196.46875 C 249.335938 196.34375 249.210938 196.21875 249.085938 196.054688 C 248.960938 195.886719 248.878906 195.722656 248.796875 195.554688 C 248.585938 195.097656 248.339844 194.683594 248.214844 194.183594 C 248.089844 193.730469 248.171875 193.273438 248.171875 192.773438 C 248.171875 192.648438 248.214844 192.484375 248.214844 192.359375 C 248.460938 191.113281 249.460938 190.03125 250.539062 189.367188 C 250.664062 189.285156 250.789062 189.203125 250.914062 189.117188 C 250.996094 189.035156 251.121094 188.910156 251.246094 188.871094 C 251.578125 188.664062 251.949219 188.539062 252.449219 188.664062 C 252.53125 188.703125 252.65625 188.746094 252.78125 188.746094 C 253.113281 188.871094 253.488281 188.996094 253.863281 189.160156 C 253.945312 189.203125 254.027344 189.242188 254.152344 189.285156 C 254.277344 189.328125 254.441406 189.410156 254.566406 189.492188 C 254.691406 189.574219 254.859375 189.617188 254.984375 189.699219 C 255.5625 190.03125 256.144531 190.15625 256.769531 190.199219 C 256.933594 190.199219 257.058594 190.199219 257.226562 190.199219 C 257.804688 190.242188 258.804688 189.867188 258.71875 190.15625 C 258.054688 192.398438 258.304688 194.808594 259.261719 196.96875 C 259.34375 197.132812 259.425781 197.300781 259.507812 197.464844 C 259.632812 197.839844 260.007812 198.503906 259.757812 198.503906 C 259.261719 198.546875 258.761719 198.585938 258.222656 198.710938 C 258.054688 198.753906 257.890625 198.796875 257.722656 198.835938 C 257.640625 198.878906 257.558594 198.878906 257.433594 198.917969 C 257.351562 198.960938 257.265625 198.960938 257.140625 199.003906 C 257.015625 199.042969 256.894531 199.085938 256.769531 199.128906 C 256.644531 199.167969 256.476562 199.253906 256.3125 199.292969 C 256.144531 199.335938 255.980469 199.375 255.855469 199.460938 C 255.773438 199.5 255.6875 199.542969 255.5625 199.585938 C 255.480469 199.625 255.355469 199.667969 255.273438 199.667969 C 255.066406 199.667969 254.898438 199.75 254.773438 199.832031 C 254.234375 200.164062 254.277344 200.914062 254.441406 201.410156 C 254.527344 201.535156 254.609375 201.703125 254.691406 201.828125 C 254.773438 201.953125 254.859375 202.035156 254.941406 202.160156 C 255.023438 202.242188 255.105469 202.367188 255.191406 202.449219 C 255.316406 202.53125 255.480469 202.574219 255.648438 202.617188 C 255.773438 202.65625 255.894531 202.65625 256.019531 202.65625 C 256.808594 202.742188 257.683594 202.617188 258.304688 202.53125 C 258.429688 202.53125 258.554688 202.53125 258.679688 202.53125 C 259.507812 202.492188 260.382812 202.449219 261.210938 202.324219 C 261.378906 202.285156 261.542969 202.285156 261.710938 202.242188 C 261.875 202.199219 262.042969 202.199219 262.207031 202.160156 C 262.375 202.117188 262.539062 202.117188 262.707031 202.074219 C 263.121094 201.953125 263.578125 201.910156 263.992188 201.867188 C 264.160156 201.867188 264.285156 201.828125 264.449219 201.828125 C 265.117188 201.785156 265.90625 201.496094 266.277344 200.828125 C 266.359375 200.707031 266.402344 200.582031 266.484375 200.414062 C 267.109375 199.085938 267.898438 197.007812 267.898438 197.007812 C 267.898438 197.007812 268.480469 195.429688 269.144531 193.730469 C 269.183594 193.605469 269.226562 193.519531 269.269531 193.394531 C 269.558594 192.316406 269.972656 191.320312 270.554688 190.28125 C 270.636719 190.03125 270.761719 189.867188 270.679688 189.574219 C 272.425781 190.117188 272.882812 191.859375 273.710938 193.230469 C 273.835938 193.355469 273.917969 193.519531 274.042969 193.644531 C 274.167969 193.769531 274.25 193.9375 274.375 194.0625 C 274.5 194.183594 274.582031 194.308594 274.707031 194.476562 C 276.039062 196.054688 277.492188 197.550781 279.109375 198.835938 C 279.195312 198.917969 279.316406 198.960938 279.402344 199.042969 C 279.484375 199.128906 279.566406 199.167969 279.691406 199.210938 C 279.898438 199.335938 280.398438 199.375 280.355469 199.460938 C 279.773438 201.039062 277.65625 200.914062 276.578125 201.992188 C 275.914062 202.617188 277.242188 203.320312 277.90625 203.488281 C 278.820312 203.777344 279.734375 203.738281 280.648438 203.53125 C 280.8125 203.488281 280.9375 203.488281 281.105469 203.445312 C 281.558594 203.363281 282.015625 203.28125 282.472656 203.195312 C 282.640625 203.15625 282.765625 203.113281 282.929688 203.113281 C 284.011719 202.863281 285.007812 202.40625 285.878906 201.742188 C 286.003906 201.660156 286.171875 201.578125 286.292969 201.535156 C 286.542969 201.371094 286.75 201.246094 286.917969 201.121094 C 287 201.039062 287.042969 200.996094 287.082031 200.953125 C 287.789062 200.289062 288.539062 199.417969 288.828125 198.464844 C 288.871094 198.296875 288.910156 198.128906 288.953125 197.964844 C 289.035156 197.632812 288.871094 197.382812 288.746094 197.09375 C 288.453125 196.429688 287.996094 195.929688 287.664062 195.265625 C 287 194.019531 286.542969 192.773438 285.921875 191.527344 C 285.835938 191.363281 285.753906 191.195312 285.671875 191.070312 C 285.546875 190.738281 285.296875 190.488281 285.257812 190.199219 C 285.171875 189.742188 285.132812 189.328125 285.089844 188.871094 C 285.089844 188.746094 285.089844 188.578125 285.050781 188.453125 C 284.714844 185.382812 285.050781 182.433594 285.503906 179.320312 C 285.628906 178.363281 285.546875 177.285156 285.007812 176.410156 C 284.925781 176.285156 284.839844 176.164062 284.757812 176.039062 C 284.050781 174.917969 283.554688 173.796875 282.972656 172.589844 C 282.890625 172.425781 282.804688 172.257812 282.722656 172.09375 C 280.6875 168.148438 277.90625 164.453125 273.585938 163.039062 C 273.460938 162.996094 273.378906 162.957031 273.253906 162.914062 C 266.527344 160.671875 259.175781 161.460938 252.28125 162.417969 C 252.117188 162.457031 251.949219 162.5 251.785156 162.5 C 250.789062 162.664062 249.792969 162.832031 249.25 162.789062 C 248.171875 162.707031 247.214844 162.707031 246.425781 162.207031 C 246.261719 162.125 246.011719 162 245.679688 161.835938 C 245.515625 161.753906 245.347656 161.667969 245.183594 161.628906 C 241.527344 159.757812 237.332031 159.300781 233.59375 161.667969 C 230.023438 163.953125 226.328125 164.785156 222.339844 165.78125 C 221.550781 165.945312 220.972656 166.570312 220.304688 167.027344 C 220.183594 167.109375 220.058594 167.191406 219.933594 167.273438 C 219.226562 167.730469 218.273438 168.355469 217.9375 168.355469 L 216.570312 168.605469 C 216.570312 168.605469 214.90625 167.316406 214.328125 167.316406 C 213.785156 167.316406 213.496094 167.941406 213.496094 167.941406 C 213.496094 167.941406 213.621094 168.355469 213.785156 168.851562 C 213.828125 169.019531 213.910156 169.1875 213.953125 169.394531 C 214.117188 170.015625 214.660156 170.722656 214.367188 171.179688 C 212.707031 173.835938 212.25 176.742188 212.625 179.773438 C 212.75 180.605469 212.25 181.3125 211.835938 182.019531 C 211.75 182.183594 211.667969 182.351562 211.585938 182.472656 C 211.210938 183.179688 210.921875 183.929688 210.878906 184.632812 C 210.878906 184.757812 210.878906 184.925781 210.878906 185.050781 C 211.085938 185.339844 211.171875 185.671875 211.417969 185.878906 Z M 277.863281 174.917969 C 277.863281 174.957031 277.863281 175 277.863281 175.042969 C 277.863281 175.082031 277.863281 175.082031 277.863281 175.125 Z M 277.863281 174.917969 " fill-opacity="1" fill-rule="nonzero"/></svg>