<svg xmlns="http://www.w3.org/2000/svg" xmlns:xlink="http://www.w3.org/1999/xlink" width="450" zoomAndPan="magnify" viewBox="0 0 337.5 337.500003" height="450" preserveAspectRatio="xMidYMid meet" version="1.0"><defs><clipPath id="7959787003"><path d="M 0 0 L 334.753906 0 L 334.753906 337 L 0 337 Z M 0 0 " clip-rule="nonzero"/></clipPath><clipPath id="40e91f5ce0"><path d="M 167.378906 336.40625 C 297.179688 300.230469 334.753906 203.300781 334.753906 134.355469 C 334.753906 51.082031 288.980469 0.566406 288.980469 0.566406 C 288.980469 0.566406 263.019531 11.492188 229.542969 11.492188 C 196.066406 11.492188 167.378906 1.25 167.378906 1.25 C 167.378906 1.25 138.683594 11.492188 105.207031 11.492188 C 71.730469 11.492188 45.773438 0.566406 45.773438 0.566406 C 45.773438 0.566406 0 51.082031 0 134.355469 C 0 203.300781 37.574219 300.230469 167.378906 336.40625 Z M 167.378906 336.40625 " clip-rule="nonzero"/></clipPath><linearGradient x1="6.445918" gradientTransform="matrix(2.789618, 0, 0, 2.787277, 0, 0.566952)" y1="-6.445991" x2="126.691567" gradientUnits="userSpaceOnUse" y2="113.798335" id="2cd060a4c1"><stop stop-opacity="1" stop-color="rgb(94.099426%, 94.099426%, 94.099426%)" offset="0"/><stop stop-opacity="1" stop-color="rgb(94.099426%, 94.099426%, 94.099426%)" offset="0.0625"/><stop stop-opacity="1" stop-color="rgb(93.984985%, 93.984985%, 93.984985%)" offset="0.078125"/><stop stop-opacity="1" stop-color="rgb(93.688965%, 93.688965%, 93.688965%)" offset="0.09375"/><stop stop-opacity="1" stop-color="rgb(93.327332%, 93.327332%, 93.327332%)" offset="0.109375"/><stop stop-opacity="1" stop-color="rgb(92.965698%, 92.965698%, 92.965698%)" offset="0.125"/><stop stop-opacity="1" stop-color="rgb(92.604065%, 92.604065%, 92.604065%)" offset="0.140625"/><stop stop-opacity="1" stop-color="rgb(92.242432%, 92.242432%, 92.242432%)" offset="0.15625"/><stop stop-opacity="1" stop-color="rgb(91.880798%, 91.880798%, 91.880798%)" offset="0.171875"/><stop stop-opacity="1" stop-color="rgb(91.519165%, 91.519165%, 91.519165%)" offset="0.1875"/><stop stop-opacity="1" stop-color="rgb(91.156006%, 91.156006%, 91.156006%)" offset="0.203125"/><stop stop-opacity="1" stop-color="rgb(90.794373%, 90.794373%, 90.794373%)" offset="0.21875"/><stop stop-opacity="1" stop-color="rgb(90.432739%, 90.432739%, 90.432739%)" offset="0.234375"/><stop stop-opacity="1" stop-color="rgb(90.071106%, 90.071106%, 90.071106%)" offset="0.25"/><stop stop-opacity="1" stop-color="rgb(89.709473%, 89.709473%, 89.709473%)" offset="0.265625"/><stop stop-opacity="1" stop-color="rgb(89.347839%, 89.347839%, 89.347839%)" offset="0.28125"/><stop stop-opacity="1" stop-color="rgb(88.986206%, 88.986206%, 88.986206%)" offset="0.296875"/><stop stop-opacity="1" stop-color="rgb(88.624573%, 88.624573%, 88.624573%)" offset="0.3125"/><stop stop-opacity="1" stop-color="rgb(88.262939%, 88.262939%, 88.262939%)" offset="0.328125"/><stop stop-opacity="1" stop-color="rgb(87.901306%, 87.901306%, 87.901306%)" offset="0.34375"/><stop stop-opacity="1" stop-color="rgb(87.55188%, 87.55188%, 87.55188%)" offset="0.359375"/><stop stop-opacity="1" stop-color="rgb(87.229919%, 87.229919%, 87.229919%)" offset="0.375"/><stop stop-opacity="1" stop-color="rgb(86.927795%, 86.927795%, 86.927795%)" offset="0.390625"/><stop stop-opacity="1" stop-color="rgb(86.624146%, 86.624146%, 86.624146%)" offset="0.40625"/><stop stop-opacity="1" stop-color="rgb(86.320496%, 86.320496%, 86.320496%)" offset="0.421875"/><stop stop-opacity="1" stop-color="rgb(86.018372%, 86.018372%, 86.018372%)" offset="0.4375"/><stop stop-opacity="1" stop-color="rgb(85.714722%, 85.714722%, 85.714722%)" offset="0.453125"/><stop stop-opacity="1" stop-color="rgb(85.412598%, 85.412598%, 85.412598%)" offset="0.46875"/><stop stop-opacity="1" stop-color="rgb(85.108948%, 85.108948%, 85.108948%)" offset="0.484375"/><stop stop-opacity="1" stop-color="rgb(84.805298%, 84.805298%, 84.805298%)" offset="0.498984"/><stop stop-opacity="1" stop-color="rgb(84.654236%, 84.654236%, 84.654236%)" offset="0.5"/><stop stop-opacity="1" stop-color="rgb(84.503174%, 84.503174%, 84.503174%)" offset="0.501016"/><stop stop-opacity="1" stop-color="rgb(84.352112%, 84.352112%, 84.352112%)" offset="0.515625"/><stop stop-opacity="1" stop-color="rgb(84.199524%, 84.199524%, 84.199524%)" offset="0.53125"/><stop stop-opacity="1" stop-color="rgb(83.8974%, 83.8974%, 83.8974%)" offset="0.546875"/><stop stop-opacity="1" stop-color="rgb(83.59375%, 83.59375%, 83.59375%)" offset="0.5625"/><stop stop-opacity="1" stop-color="rgb(83.2901%, 83.2901%, 83.2901%)" offset="0.578125"/><stop stop-opacity="1" stop-color="rgb(82.987976%, 82.987976%, 82.987976%)" offset="0.59375"/><stop stop-opacity="1" stop-color="rgb(82.684326%, 82.684326%, 82.684326%)" offset="0.609375"/><stop stop-opacity="1" stop-color="rgb(82.380676%, 82.380676%, 82.380676%)" offset="0.625"/><stop stop-opacity="1" stop-color="rgb(82.078552%, 82.078552%, 82.078552%)" offset="0.640625"/><stop stop-opacity="1" stop-color="rgb(81.774902%, 81.774902%, 81.774902%)" offset="0.65625"/><stop stop-opacity="1" stop-color="rgb(81.472778%, 81.472778%, 81.472778%)" offset="0.671875"/><stop stop-opacity="1" stop-color="rgb(81.169128%, 81.169128%, 81.169128%)" offset="0.6875"/><stop stop-opacity="1" stop-color="rgb(80.865479%, 80.865479%, 80.865479%)" offset="0.703125"/><stop stop-opacity="1" stop-color="rgb(80.563354%, 80.563354%, 80.563354%)" offset="0.71875"/><stop stop-opacity="1" stop-color="rgb(80.259705%, 80.259705%, 80.259705%)" offset="0.734375"/><stop stop-opacity="1" stop-color="rgb(79.957581%, 79.957581%, 79.957581%)" offset="0.75"/><stop stop-opacity="1" stop-color="rgb(79.653931%, 79.653931%, 79.653931%)" offset="0.765625"/><stop stop-opacity="1" stop-color="rgb(79.350281%, 79.350281%, 79.350281%)" offset="0.78125"/><stop stop-opacity="1" stop-color="rgb(79.048157%, 79.048157%, 79.048157%)" offset="0.796875"/><stop stop-opacity="1" stop-color="rgb(78.744507%, 78.744507%, 78.744507%)" offset="0.8125"/><stop stop-opacity="1" stop-color="rgb(78.495789%, 78.495789%, 78.495789%)" offset="0.875"/><stop stop-opacity="1" stop-color="rgb(78.399658%, 78.399658%, 78.399658%)" offset="1"/></linearGradient></defs><g clip-path="url(#7959787003)"><g clip-path="url(#40e91f5ce0)"><path fill="url(#2cd060a4c1)" d="M 0 0.566406 L 0 336.40625 L 334.753906 336.40625 L 334.753906 0.566406 Z M 0 0.566406 " fill-rule="nonzero"/></g></g><path fill="#cc0000" d="M 304.804688 40.027344 C 297.65625 25.523438 290.433594 15.226562 286.328125 9.875 C 276.484375 13.234375 255.1875 19.277344 229.550781 19.277344 C 200.703125 19.277344 175.5625 12.09375 167.378906 9.480469 C 159.199219 12.089844 134.058594 19.277344 105.214844 19.277344 C 79.578125 19.277344 58.277344 13.230469 48.433594 9.875 C 41.949219 18.339844 27.652344 39.242188 17.96875 70.058594 L 316.785156 70.058594 C 313.074219 58.207031 308.785156 48.105469 304.804688 40.027344 Z M 304.804688 40.027344 " fill-opacity="1" fill-rule="nonzero"/><path fill="#000080" d="M 319.164062 78.25 L 15.570312 78.25 C 11.175781 94.5 8.195312 113.171875 8.195312 133.953125 C 8.195312 156.25 12.554688 200.015625 41.773438 242.632812 C 69.445312 283 111.699219 311.539062 167.378906 327.492188 C 223.054688 311.539062 265.304688 283 292.976562 242.636719 C 322.195312 200.019531 326.554688 156.253906 326.554688 133.953125 C 326.558594 113 323.488281 94.261719 319.164062 78.25 Z M 319.164062 78.25 " fill-opacity="1" fill-rule="nonzero"/><path fill="#ffffff" d="M 61.476562 28.050781 L 66.335938 28.050781 L 66.335938 62.648438 L 61.476562 62.648438 Z M 61.476562 28.050781 " fill-opacity="1" fill-rule="nonzero"/><path fill="#ffffff" d="M 91.972656 62.648438 L 87.164062 62.648438 L 77.5 40.648438 L 77.5 62.648438 L 72.539062 62.648438 L 72.539062 28.050781 L 77.5 28.050781 L 86.957031 49.738281 L 86.957031 28.050781 L 91.972656 28.050781 Z M 91.972656 62.648438 " fill-opacity="1" fill-rule="nonzero"/><path fill="#ffffff" d="M 113.578125 32.699219 L 107.269531 32.699219 L 107.269531 62.648438 L 102.257812 62.648438 L 102.257812 32.699219 L 95.949219 32.699219 L 95.949219 28.050781 L 113.574219 28.050781 L 113.574219 32.699219 Z M 113.578125 32.699219 " fill-opacity="1" fill-rule="nonzero"/><path fill="#ffffff" d="M 135.796875 62.648438 L 118.175781 62.648438 L 118.175781 28.050781 L 134.457031 28.050781 L 134.457031 32.90625 L 123.136719 32.90625 L 123.136719 41.632812 L 130.320312 41.632812 L 130.320312 46.382812 L 123.136719 46.382812 L 123.136719 57.796875 L 135.796875 57.796875 Z M 135.796875 62.648438 " fill-opacity="1" fill-rule="nonzero"/><path fill="#ffffff" d="M 160.761719 62.648438 L 155.648438 62.648438 L 151.046875 46.382812 L 146.292969 46.382812 L 146.292969 62.648438 L 141.332031 62.648438 L 141.332031 28.050781 L 151.667969 28.050781 C 154.390625 28.050781 156.585938 28.894531 158.257812 30.582031 C 159.929688 32.265625 160.761719 34.503906 160.761719 37.292969 C 160.761719 39.117188 160.304688 40.832031 159.394531 42.433594 C 158.480469 44.03125 157.265625 45.109375 155.746094 45.660156 Z M 155.902344 37.140625 C 155.902344 35.832031 155.492188 34.796875 154.664062 34.042969 C 153.835938 33.285156 152.75 32.90625 151.410156 32.90625 L 146.292969 32.90625 L 146.292969 41.429688 L 151.410156 41.429688 C 152.648438 41.429688 153.707031 41.015625 154.585938 40.1875 C 155.460938 39.359375 155.902344 38.34375 155.902344 37.140625 Z M 155.902344 37.140625 " fill-opacity="1" fill-rule="nonzero"/><path fill="#ffffff" d="M 184.640625 52.941406 C 184.640625 55.664062 183.792969 58.0625 182.109375 60.144531 C 180.421875 62.230469 178.09375 63.269531 175.128906 63.269531 C 172.40625 63.269531 170.109375 62.210938 168.230469 60.09375 C 166.351562 57.972656 165.414062 55.4375 165.414062 52.476562 L 170.167969 52.476562 C 170.167969 54.300781 170.625 55.75 171.535156 56.8125 C 172.449219 57.882812 173.613281 58.417969 175.027344 58.417969 C 176.335938 58.417969 177.472656 57.894531 178.4375 56.84375 C 179.402344 55.792969 179.867188 54.5625 179.832031 53.152344 C 179.796875 52.015625 179.375 50.820312 178.566406 49.5625 C 177.757812 48.304688 176.265625 46.988281 174.097656 45.613281 C 171.613281 44.027344 169.808594 42.453125 168.671875 40.886719 C 167.535156 39.320312 166.96875 37.847656 166.96875 36.472656 C 166.929688 33.992188 167.722656 31.882812 169.347656 30.148438 C 170.964844 28.410156 173.03125 27.523438 175.550781 27.488281 C 178.199219 27.488281 180.382812 28.359375 182.089844 30.09375 C 183.792969 31.832031 184.644531 33.941406 184.644531 36.421875 L 179.582031 36.421875 C 179.613281 35.078125 179.195312 34.03125 178.316406 33.269531 C 177.4375 32.515625 176.511719 32.171875 175.554688 32.238281 C 174.414062 32.308594 173.535156 32.730469 172.917969 33.503906 C 172.296875 34.277344 172.003906 35.214844 172.039062 36.320312 C 172.074219 37.042969 172.382812 37.75 172.96875 38.433594 C 173.554688 39.125 174.832031 40.15625 176.792969 41.535156 C 179.546875 43.394531 181.539062 45.214844 182.765625 47.007812 C 183.972656 48.796875 184.605469 50.773438 184.640625 52.941406 Z M 184.640625 52.941406 " fill-opacity="1" fill-rule="nonzero"/><path fill="#ffffff" d="M 206.089844 32.699219 L 199.78125 32.699219 L 199.78125 62.648438 L 194.769531 62.648438 L 194.769531 32.699219 L 188.460938 32.699219 L 188.460938 28.050781 L 206.085938 28.050781 L 206.085938 32.699219 Z M 206.089844 32.699219 " fill-opacity="1" fill-rule="nonzero"/><path fill="#ffffff" d="M 230.84375 62.648438 L 225.832031 62.648438 L 223.402344 53.195312 L 216.011719 53.195312 L 213.683594 62.648438 L 208.726562 62.648438 L 217.355469 28.050781 L 222.210938 28.050781 Z M 222.210938 48.347656 L 219.679688 38.378906 L 217.25 48.347656 Z M 222.210938 48.347656 " fill-opacity="1" fill-rule="nonzero"/><path fill="#ffffff" d="M 251.050781 32.699219 L 244.746094 32.699219 L 244.746094 62.648438 L 239.730469 62.648438 L 239.730469 32.699219 L 233.425781 32.699219 L 233.425781 28.050781 L 251.050781 28.050781 Z M 251.050781 32.699219 " fill-opacity="1" fill-rule="nonzero"/><path fill="#ffffff" d="M 273.273438 62.648438 L 255.652344 62.648438 L 255.652344 28.050781 L 271.933594 28.050781 L 271.933594 32.90625 L 260.613281 32.90625 L 260.613281 41.632812 L 267.796875 41.632812 L 267.796875 46.382812 L 260.613281 46.382812 L 260.613281 57.796875 L 273.273438 57.796875 Z M 273.273438 62.648438 " fill-opacity="1" fill-rule="nonzero"/><path fill="#ffffff" d="M 64.40625 155 C 64.40625 143.175781 68.863281 133.25 77.773438 125.226562 C 86.683594 117.207031 97.742188 113.195312 110.941406 113.195312 C 124.140625 113.195312 135.195312 117.414062 144.113281 125.839844 C 153.023438 134.269531 157.480469 144.597656 157.480469 156.835938 C 157.480469 175.734375 152.652344 194.125 142.988281 212 C 133.328125 229.882812 120.605469 244.054688 104.820312 254.519531 L 93.800781 236.371094 C 109.855469 224 121.011719 209.996094 127.273438 194.359375 C 122.238281 195.859375 116.792969 196.605469 110.941406 196.605469 C 98.289062 196.605469 87.371094 192.527344 78.183594 184.367188 C 69 176.210938 64.40625 166.425781 64.40625 155 Z M 86.042969 155.410156 C 86.042969 160.710938 88.492188 165.304688 93.390625 169.175781 C 98.289062 173.050781 104.140625 174.988281 110.941406 174.988281 C 118.699219 175.125 124.683594 173.425781 128.902344 169.890625 C 133.121094 166.355469 135.300781 161.53125 135.4375 155.410156 C 135.4375 149.835938 133.054688 145.082031 128.292969 141.136719 C 123.527344 137.195312 117.746094 135.222656 110.941406 135.222656 C 104.269531 135.222656 98.453125 137.230469 93.488281 141.238281 C 88.519531 145.25 86.042969 149.976562 86.042969 155.410156 Z M 86.042969 155.410156 " fill-opacity="1" fill-rule="nonzero"/><path fill="#ffffff" d="M 270.347656 201.09375 C 270.347656 214.6875 264.800781 226.992188 253.714844 238.003906 C 242.617188 249.011719 228.433594 254.519531 211.15625 254.519531 C 199.042969 254.519531 187.886719 251.941406 177.683594 246.773438 L 190.132812 227.199219 C 196.527344 230.457031 203.601562 232.09375 211.359375 232.09375 C 221.425781 232.367188 230.238281 229.105469 237.792969 222.304688 C 245.34375 215.507812 249.117188 208.300781 249.117188 200.683594 C 249.253906 194.15625 247.042969 188.652344 242.484375 184.164062 C 237.921875 179.679688 232.175781 177.4375 225.238281 177.4375 C 216.390625 177.300781 208.5 181.3125 201.5625 189.464844 L 182.171875 182.125 L 184.417969 115.4375 L 262.996094 115.4375 L 262.996094 137.054688 L 205.441406 137.054688 L 204.625 160.507812 C 211.292969 156.972656 218.097656 155.203125 225.035156 155.203125 C 237.960938 155.480469 248.746094 159.894531 257.386719 168.460938 C 266.027344 177.03125 270.347656 187.90625 270.347656 201.09375 Z M 270.347656 201.09375 " fill-opacity="1" fill-rule="nonzero"/></svg>